<?xml version="1.0" encoding="UTF-8" standalone="no"?>
<!-- Created with Inkscape (http://www.inkscape.org/) -->

<svg
   xmlns:dc="http://purl.org/dc/elements/1.1/"
   xmlns:cc="http://creativecommons.org/ns#"
   xmlns:rdf="http://www.w3.org/1999/02/22-rdf-syntax-ns#"
   xmlns:svg="http://www.w3.org/2000/svg"
   xmlns="http://www.w3.org/2000/svg"
   xmlns:sodipodi="http://sodipodi.sourceforge.net/DTD/sodipodi-0.dtd"
   xmlns:inkscape="http://www.inkscape.org/namespaces/inkscape"
   width="210mm"
   height="297mm"
   viewBox="0 0 210 297"
   version="1.1"
   id="svg8"
   inkscape:version="0.92.4 (5da689c313, 2019-01-14)"
   sodipodi:docname="logoU.svg">
  <defs
     id="defs2" />
  <sodipodi:namedview
     id="base"
     pagecolor="#ffffff"
     bordercolor="#666666"
     borderopacity="1.0"
     inkscape:pageopacity="0.0"
     inkscape:pageshadow="2"
     inkscape:zoom="1.4"
     inkscape:cx="188.7504"
     inkscape:cy="720.49505"
     inkscape:document-units="mm"
     inkscape:current-layer="layer1"
     showgrid="false"
     inkscape:window-width="1920"
     inkscape:window-height="1001"
     inkscape:window-x="-9"
     inkscape:window-y="-9"
     inkscape:window-maximized="1" />
  <metadata
     id="metadata5">
    <rdf:RDF>
      <cc:Work
         rdf:about="">
        <dc:format>image/svg+xml</dc:format>
        <dc:type
           rdf:resource="http://purl.org/dc/dcmitype/StillImage" />
        <dc:title></dc:title>
      </cc:Work>
    </rdf:RDF>
  </metadata>
  <g
     inkscape:label="Layer 1"
     inkscape:groupmode="layer"
     id="layer1">
    <g
       id="g21"
       transform="translate(3.0238095,-68.791667)">
      <path
         style="fill:#e4eceb;stroke-width:0.21166666"
         d="m 84.122376,165.10997 c -3.81957,-0.69452 -7.268253,-1.95606 -10.175898,-3.72236 l -1.264546,-0.76817 -1.027904,1.09486 c -0.775068,0.82555 -1.151248,1.0774 -1.529361,1.02391 -0.752613,-0.10647 -0.780238,-1.19483 -0.06732,-2.65199 l 0.569822,-1.16467 -1.150804,-1.19631 c -1.464454,-1.52236 -2.06233,-2.34983 -2.907066,-4.02343 -1.954507,-3.87228 -1.999575,-8.55476 -0.119439,-12.40966 1.46958,-3.01314 4.409943,-6.11484 7.372201,-7.77673 0.679539,-0.38123 2.013039,-1.35251 2.963334,-2.15838 3.915234,-3.32023 7.735144,-5.18471 12.906262,-6.29947 1.81889,-0.3921 2.852515,-0.46688 6.601547,-0.4776 4.857716,-0.0139 6.135716,0.16524 10.054176,1.40917 7.65283,2.42943 13.08646,7.54108 14.52425,13.66362 0.49401,2.10366 0.29998,5.3668 -0.44683,7.51434 -1.10424,3.17541 -3.88526,6.63117 -6.91132,8.58816 -1.17601,0.76054 -1.43086,1.03582 -1.65601,1.78877 -0.65801,2.20049 -2.38062,4.65289 -3.98129,5.66801 -1.24465,0.78933 -1.9902,0.80006 -2.59343,0.0373 -0.67278,-0.85068 -0.45073,-2.2214 0.73597,-4.54314 0.52281,-1.02288 0.88208,-1.8564 0.79836,-1.85227 -0.0837,0.004 -0.39034,0.14362 -0.68137,0.30999 -0.80964,0.46283 -1.45492,0.37682 -2.11345,-0.28171 l -0.59921,-0.59922 -0.81326,0.4923 c -1.06826,0.64666 -1.8596,0.63153 -2.5397,-0.0486 l -0.543041,-0.54304 -1.436209,0.7547 c -1.845094,0.96957 -2.593967,0.97951 -3.474273,0.0461 l -0.668289,-0.7086 -0.729234,0.3911 c -0.915486,0.49098 -2.061267,0.50232 -2.588021,0.0256 -0.383832,-0.34736 -0.444439,-0.34211 -1.222769,0.10584 -0.971158,0.55892 -1.62738,0.59573 -2.294187,0.12868 -0.418437,-0.29308 -0.476582,-0.48436 -0.402141,-1.32291 0.04786,-0.53916 0.16558,-1.1708 0.261597,-1.40363 0.114471,-0.27759 -0.112505,-0.15007 -0.659298,0.37042 -1.517552,1.44454 -2.206866,0.66793 -0.832406,-0.93781 0.602754,-0.70419 0.705195,-0.96501 0.609828,-1.55268 -0.204321,-1.2591 1.311953,-2.29429 2.143104,-1.46314 0.182942,0.18294 0.332619,0.46869 0.332619,0.635 0,0.16631 0.17145,0.30238 0.381,0.30238 0.456999,0 0.889,0.39331 0.889,0.80939 0,0.16577 -0.381,0.87195 -0.846666,1.56929 -0.825786,1.23662 -1.043722,1.85465 -0.654008,1.85465 0.463679,0 2.371429,-1.77288 3.225946,-2.99788 1.013469,-1.45287 1.500571,-1.71979 1.871984,-1.0258 0.191076,0.35703 0.162035,0.56997 -0.144469,1.0593 -1.286236,2.05347 -1.555671,2.56871 -1.440601,2.7549 0.190987,0.30902 1.146046,-0.25266 2.036828,-1.19789 0.422498,-0.44832 1.051251,-0.96925 1.397229,-1.15761 0.497518,-0.27087 0.660059,-0.53639 0.777341,-1.26984 0.183215,-1.14576 1.020778,-2.09185 1.851904,-2.09185 1.077538,0 1.217614,0.90655 0.336499,2.17777 -0.383868,0.55382 -0.388275,0.6342 -0.07139,1.30199 0.185757,0.39145 0.337738,0.91164 0.337738,1.15598 0,0.24435 0.07865,0.44426 0.174771,0.44426 0.279939,0 1.094778,-0.95089 1.099972,-1.28364 0.0026,-0.16712 0.286232,-0.87536 0.630262,-1.57386 0.34403,-0.6985 0.62765,-1.34143 0.63026,-1.42875 0.003,-0.0873 -0.28101,-0.15875 -0.63026,-0.15875 -0.534927,0 -0.635005,-0.0828 -0.635005,-0.52513 0,-0.55064 0.115843,-0.60487 1.766505,-0.82697 0.58859,-0.0792 1.10339,-0.3802 1.85902,-1.08701 1.34089,-1.25425 2.74986,-1.90881 3.38134,-1.57086 0.35851,0.19188 0.42736,0.37689 0.33802,0.90838 -0.0617,0.36709 -0.17629,0.82935 -0.25463,1.02726 -0.12357,0.31222 0.0348,0.36824 1.19695,0.42333 1.12827,0.0535 1.35168,0.12802 1.41744,0.47285 0.13079,0.68587 -0.54731,0.96649 -2.33546,0.96649 h -1.65158 l -2.17088,2.24095 c -2.19386,2.26467 -2.49329,2.70714 -2.09892,3.10152 0.31964,0.31964 2.0137,-0.73936 2.71298,-1.69594 1.49393,-2.04364 2.50024,-2.79987 3.72575,-2.79987 0.89642,0 1.38881,0.35606 1.60373,1.15967 0.16845,0.62984 0.1688,0.62955 1.30134,-1.05858 2.36394,-3.52359 5.00179,-6.60039 6.18414,-7.21318 1.90993,-0.98989 2.72529,0.49362 1.41402,2.57274 -0.838,1.32872 -2.55288,3.31378 -4.79866,5.55471 -1.36195,1.35901 -1.73032,1.84968 -1.62878,2.16958 0.0722,0.22737 0.24385,0.41196 0.38153,0.41019 0.45864,-0.006 3.32869,-2.54808 4.32484,-3.83083 1.32373,-1.7046 1.89437,-2.748 2.53358,-4.63263 1.14699,-3.38178 0.52722,-7.41733 -1.6358,-10.65132 -5.8005,-8.67247 -20.385734,-12.09909 -32.065642,-7.53342 -2.051945,0.80211 -4.463971,2.04382 -4.296134,2.21166 0.04537,0.0454 0.580085,-0.0488 1.188258,-0.20921 1.940973,-0.51202 4.793742,-0.80681 6.838279,-0.70663 1.581118,0.0775 2.337215,0.23565 3.719025,0.77807 l 1.734429,0.68084 0.805571,-0.52941 c 1.819512,-1.19575 3.857221,-1.22635 4.505365,-0.0677 0.287299,0.5136 0.287539,0.63681 0.0022,1.1469 -0.558421,0.99831 -1.593452,1.43546 -3.43052,1.44889 -0.898438,0.007 -1.669085,0.0547 -1.71255,0.10704 -0.783432,0.94266 -1.839758,2.39733 -1.839758,2.53354 0,0.0979 0.214312,0.20837 0.47625,0.24557 0.373024,0.053 0.47625,0.20528 0.47625,0.70264 0,0.59521 -0.05306,0.6367 -0.846667,0.6621 -0.465667,0.0149 -0.950999,0.0387 -1.078518,0.0529 -0.127518,0.0142 -0.717833,0.8211 -1.311812,1.79311 -1.237349,2.02484 -2.676407,3.53815 -3.951554,4.15544 -0.954416,0.46203 -2.679404,0.56806 -3.59267,0.22084 -0.468725,-0.17821 -0.542946,-0.14954 -0.542946,0.20979 0,0.22891 -0.611111,1.44099 -1.358023,2.69351 -1.241372,2.08168 -1.468362,2.87547 -0.719955,2.51773 0.153346,-0.0733 1.517062,-1.03765 3.030478,-2.14301 1.513417,-1.10535 3.404893,-2.3545 4.203283,-2.77589 1.228844,-0.64858 1.529315,-0.73075 1.957917,-0.53547 0.888314,0.40475 0.603119,0.92068 -1.010069,1.82726 -0.828614,0.46567 -2.802848,1.71234 -4.387183,2.77038 -3.312347,2.21203 -3.154145,1.84894 -2.183611,5.01154 0.733273,2.38945 1.071554,2.98276 1.963714,3.44412 0.514484,0.26604 0.632509,0.44997 0.580092,0.90398 -0.08064,0.69843 -0.711839,0.84517 -1.618547,0.37629 -0.872757,-0.45132 -1.390995,-1.38189 -2.256251,-4.05143 -0.409752,-1.26419 -0.820367,-2.3739 -0.912473,-2.466 -0.09211,-0.0921 -0.547595,-0.0181 -1.012197,0.16435 -0.737575,0.28973 -1.048698,0.65888 -2.452649,2.91013 -0.884354,1.41807 -1.868157,3.09741 -2.186231,3.73188 l -0.578313,1.15356 0.607093,0.49119 c 0.965101,0.78085 4.675687,2.51626 6.639592,3.10528 3.063263,0.91875 5.527647,1.25956 9.101666,1.25872 3.681148,-8.5e-4 6.255047,-0.37154 9.377403,-1.35045 1.250848,-0.39217 2.015478,-0.53615 2.147268,-0.40436 0.32952,0.32952 -0.26497,0.72978 -2.142956,1.44283 -3.687924,1.40027 -5.580827,1.77387 -9.381715,1.85167 -2.758636,0.0565 -3.959502,-0.0134 -5.714999,-0.33264 z m 24.004004,-4.05248 c 0.53436,-0.59434 1.32416,-1.79405 1.75511,-2.66603 l 0.78356,-1.58542 -0.51842,-0.39843 c -0.28513,-0.21914 -0.58566,-0.40055 -0.66784,-0.40314 -0.3992,-0.0126 -2.91424,4.86407 -2.91768,5.65738 -0.003,0.76166 0.51809,0.56035 1.56527,-0.60436 z m -35.724148,-4.36981 c 0.333722,-0.43656 1.252821,-1.74529 2.042439,-2.90829 l 1.435672,-2.11454 -0.576011,-0.42546 c -0.316806,-0.234 -0.77216,-0.47594 -1.0119,-0.53765 -0.544623,-0.14017 -1.864184,-2.72525 -2.373765,-4.65031 -0.431805,-1.63123 -0.485977,-5.15144 -0.100976,-6.56166 0.143021,-0.52388 0.458411,-1.45599 0.700866,-2.07136 0.242456,-0.61537 0.399566,-1.16012 0.349136,-1.21055 -0.170624,-0.17062 -2.287755,1.82689 -3.216139,3.03443 -3.327457,4.32798 -3.891471,9.1432 -1.610333,13.74807 0.781577,1.57774 3.111663,4.49107 3.591969,4.49107 0.08925,0 0.43532,-0.35718 0.769042,-0.79375 z m 34.265588,-1.78835 c 0.85101,-1.01136 1.29431,-2.02614 1.00953,-2.31092 -0.2979,-0.2979 -2.01647,1.24366 -2.38894,2.14287 -0.59113,1.42713 0.23526,1.5278 1.37941,0.16805 z m -9.637019,0.095 c -0.005,-0.89481 -0.255284,-1.1726 -0.738316,-0.8194 -0.380427,0.27818 -0.38209,0.31778 -0.03555,0.84666 0.469818,0.71703 0.777953,0.70618 0.77387,-0.0273 z M 77.137376,149.9446 c 0,-0.0457 -0.142875,-0.0832 -0.3175,-0.0832 -0.174625,0 -0.3175,0.0923 -0.3175,0.20503 0,0.11276 0.142875,0.1502 0.3175,0.0832 0.174625,-0.067 0.3175,-0.15928 0.3175,-0.20503 z m 38.555214,-2.38375 c 1.15885,-1.43637 1.50154,-2.16723 0.70701,-1.50782 -0.42004,0.3486 -2.24532,2.65751 -2.75967,3.49088 l -0.39191,0.635 0.5931,-0.52916 c 0.32621,-0.29104 1.15937,-1.23105 1.85147,-2.0889 z m -40.753298,1.7841 c 0.202152,-0.52681 1.167671,-1.0148 2.277772,-1.15124 l 1.069634,-0.13146 1.648022,-2.32834 c 0.906414,-1.28058 1.800399,-2.44109 1.986636,-2.5789 0.304967,-0.22568 0.292794,-0.29929 -0.122524,-0.74084 -0.711322,-0.75624 -1.096403,-1.85461 -1.114615,-3.17921 -0.0185,-1.34583 0.266954,-1.86188 1.029908,-1.86188 0.548439,0 0.582897,0.0955 0.513152,1.42236 -0.179381,3.41265 2.723774,4.44969 5.092923,1.81925 1.046363,-1.16176 2.52716,-3.37273 2.366494,-3.5334 -0.07235,-0.0724 -0.59854,-0.13154 -1.169318,-0.13154 -0.95191,0 -1.03218,-0.039 -0.970139,-0.47095 0.0915,-0.63709 0.901207,-1.00384 2.224554,-1.0076 l 1.098581,-0.003 1.123918,-1.6258 c 0.618156,-0.8942 1.108179,-1.67847 1.088943,-1.74283 -0.01924,-0.0644 -0.781238,-0.39676 -1.693333,-0.73867 -2.936293,-1.1007 -6.153616,-0.7742 -11.500858,1.16711 -2.545839,0.92426 -2.955268,1.14303 -3.753908,2.00577 -1.165331,1.25887 -2.304819,3.59735 -2.724416,5.59109 -0.484069,2.30007 -0.307626,5.50566 0.428159,7.77875 0.544707,1.68279 0.852892,2.08648 1.100415,1.44145 z m 22.8885,-18.03195 c 0.261937,-0.0702 0.47625,-0.21177 0.47625,-0.31461 0,-0.29945 -0.939472,-0.21568 -1.388294,0.12379 -0.405397,0.30663 -0.405232,0.31082 0.01247,0.31461 0.232833,0.002 0.637646,-0.0536 0.899583,-0.12379 z m -4.376568,19.62226 c -0.527548,-0.52754 -0.535781,-0.62959 -0.100883,-1.2505 0.397747,-0.56786 1.289721,-0.55819 1.650435,0.0179 0.269644,0.43064 0.03991,0.90746 -0.66164,1.37328 -0.399985,0.26558 -0.497025,0.2502 -0.887912,-0.14069 z m 1.636964,-7.5826 c -0.534532,-0.62238 -0.599969,-1.0883 -0.282329,-2.01026 0.167439,-0.48599 0.276606,-0.91145 0.242591,-0.94547 -0.03401,-0.034 -0.414636,0.31946 -0.845824,0.78549 -0.888234,0.96001 -1.083039,1.01982 -1.398941,0.42955 -0.186472,-0.34842 -0.09317,-0.56212 0.562074,-1.2874 0.658813,-0.72923 0.77775,-1.00368 0.736672,-1.69988 -0.08443,-1.43092 1.330359,-2.41403 2.157971,-1.49953 0.19267,0.2129 0.350307,0.47777 0.350307,0.5886 0,0.11083 0.28575,0.30937 0.635,0.4412 0.842319,0.31794 0.80523,0.70898 -0.211667,2.2318 -0.827572,1.2393 -1.043718,1.85465 -0.651455,1.85465 0.45531,0 2.059773,-1.46893 2.872657,-2.63001 0.988106,-1.41135 1.575946,-1.88786 2.086986,-1.69175 0.52722,0.20231 0.41887,0.96431 -0.25403,1.78645 -1.207163,1.4749 -1.508737,2.58272 -0.42726,1.5695 0.36497,-0.34193 1.08834,-1.19319 1.60749,-1.89169 1.09289,-1.47042 1.43809,-1.72303 1.86753,-1.36663 0.46374,0.38487 0.38257,0.70536 -0.54025,2.13314 -1.39335,2.15578 -1.03418,2.73358 0.7707,1.23981 1.07575,-0.89032 1.60764,-0.99608 1.73311,-0.34459 0.0924,0.48008 -0.6233,1.27865 -1.85734,2.07226 -1.16199,0.74729 -1.9892,0.77691 -2.62219,0.0939 -0.4698,-0.50693 -0.47826,-0.50787 -0.9953,-0.11054 -0.648143,0.49806 -1.424521,0.52052 -1.937771,0.056 -0.367099,-0.33222 -0.441881,-0.32568 -1.209653,0.10584 -0.98838,0.5555 -1.957682,0.59182 -2.389078,0.0895 z"
         id="path35"
         inkscape:connector-curvature="0" />
      <path
         style="fill:#d9e5e3;stroke-width:0.21166666"
         d="m 86.72349,165.29604 c -4.36184,-0.39611 -8.927054,-1.82048 -12.320697,-3.84413 l -1.782085,-1.06266 -0.935724,1.08609 c -0.630334,0.73163 -1.097548,1.08609 -1.431569,1.08609 -0.810201,0 -0.846186,-0.69655 -0.116533,-2.25579 l 0.65263,-1.39463 -1.357736,-1.43927 c -7.163492,-7.59368 -5.073375,-18.12146 4.768666,-24.01944 0.742188,-0.44476 2.063809,-1.4278 2.936934,-2.18451 5.12069,-4.43798 11.475042,-6.611 19.367499,-6.62318 3.856955,-0.006 7.215235,0.54534 10.604825,1.74087 7.09911,2.50391 12.29712,7.57119 13.63191,13.28909 0.36046,1.54411 0.3082,4.72323 -0.10309,6.27103 -1.02986,3.87572 -3.82264,7.53749 -7.57073,9.92644 -0.76488,0.48751 -1.21708,0.9215 -1.21708,1.16805 0,0.65928 -1.63351,3.70044 -2.54201,4.73256 -1.55416,1.76561 -3.09456,2.32906 -3.90851,1.42965 -0.66525,-0.73509 -0.34033,-2.29373 1.02944,-4.93815 l 1.19444,-2.30593 -0.89171,0.65577 c -1.1888,0.87425 -2.08381,0.88002 -2.75861,0.0178 l -0.49932,-0.638 -0.72132,0.53217 c -0.97923,0.72245 -1.97867,0.70727 -2.67175,-0.0406 -0.484839,-0.52314 -0.571034,-0.54668 -0.995314,-0.2718 -1.109273,0.71869 -2.422264,1.25513 -3.087048,1.26127 -0.552911,0.005 -0.864362,-0.15778 -1.357441,-0.70991 l -0.639896,-0.71652 -0.949503,0.50486 c -1.16822,0.62114 -1.517838,0.62928 -2.251246,0.0524 l -0.575221,-0.45247 -0.805062,0.45247 c -1.062911,0.59739 -2.00261,0.59044 -2.428752,-0.018 -0.472561,-0.67467 -0.412625,-1.14722 0.307308,-2.42287 0.350245,-0.6206 0.56732,-1.12836 0.482389,-1.12836 -0.08493,0 -0.688975,0.52897 -1.342321,1.1755 -1.038917,1.02808 -1.222044,1.13435 -1.460186,0.84741 -0.23001,-0.27715 -0.153321,-0.45978 0.493841,-1.17611 0.611182,-0.67651 0.766134,-1.01914 0.766134,-1.69408 0,-0.92106 0.559657,-1.69273 1.227667,-1.69273 0.482593,0 0.889,0.39998 0.889,0.87495 0,0.24262 0.196594,0.38963 0.580273,0.43391 0.873674,0.10084 0.831704,0.66621 -0.162756,2.19257 -0.961213,1.47533 -1.026963,2.22217 -0.156075,1.77281 1.05788,-0.54584 1.930582,-1.36266 2.942842,-2.75439 0.584657,-0.80383 1.201236,-1.46151 1.370175,-1.46151 0.45541,0 0.612995,0.62743 0.286144,1.13929 -1.119291,1.75285 -1.657388,2.75679 -1.561101,2.91258 0.258854,0.41883 0.989667,0.12056 1.935531,-0.78998 0.555024,-0.53429 1.268247,-1.10678 1.584943,-1.27219 0.668293,-0.34906 1.01169,-0.90224 1.01169,-1.62974 0,-1.05337 1.393842,-2.21567 2.169584,-1.80917 0.518591,0.27175 0.461808,0.83212 -0.18018,1.77815 -0.524175,0.77241 -0.534333,0.83888 -0.211666,1.38511 0.18641,0.31557 0.338929,0.81539 0.338929,1.1107 0,0.29531 0.102301,0.60016 0.227336,0.67743 0.341865,0.21129 1.209969,-0.71111 1.482672,-1.57539 0.13234,-0.41944 0.51692,-1.26269 0.85462,-1.87388 l 0.61399,-1.11125 h -0.61089 c -0.33599,0 -0.71898,-0.13023 -0.85109,-0.28941 -0.356314,-0.42934 0.20111,-0.79895 1.40556,-0.93199 0.83429,-0.0922 1.20334,-0.29137 2.16947,-1.17101 1.29949,-1.18318 2.35658,-1.71599 2.99959,-1.51191 0.44282,0.14054 0.45964,0.71175 0.0583,1.97947 -0.16012,0.50578 -0.15319,0.50836 0.99923,0.37292 1.38959,-0.16332 2.16434,0.20084 1.67688,0.7882 -0.2187,0.26351 -0.68567,0.3404 -2.06735,0.3404 h -1.78483 l -2.158,2.24489 c -1.1869,1.23469 -2.23346,2.37642 -2.3257,2.53719 -0.17235,0.30043 0.16042,1.14459 0.45121,1.14459 0.50237,0 2.23117,-1.39707 2.97535,-2.40442 1.4451,-1.95616 2.73347,-2.70727 3.85027,-2.24467 0.59717,0.24735 0.74249,0.52664 0.87718,1.68575 0.0545,0.46912 0.15473,0.38504 0.88309,-0.74083 2.57706,-3.98349 5.49552,-7.41529 6.94425,-8.16572 1.00884,-0.52256 1.14623,-0.5129 1.55386,0.10923 0.31429,0.47967 0.307,0.58633 -0.10349,1.51432 -0.57417,1.29799 -2.23808,3.34252 -4.90178,6.02304 -2.03241,2.04524 -2.12805,2.18116 -1.8717,2.66017 0.14859,0.27764 0.34202,0.50479 0.42985,0.50479 0.24264,0 2.08748,-1.42199 3.12191,-2.40635 1.24974,-1.18923 2.66835,-3.20235 3.39859,-4.82284 2.16108,-4.79566 1.09544,-10.14084 -2.85998,-14.34547 -2.60956,-2.77398 -5.45859,-4.50429 -9.79028,-5.94595 -3.49505,-1.16322 -6.478507,-1.55688 -10.717295,-1.41413 -3.971503,0.13375 -6.547815,0.62077 -9.834843,1.85917 -2.149234,0.80972 -5.23051,2.44994 -5.012311,2.66814 0.05926,0.0593 0.947612,-0.0873 1.974117,-0.32573 1.026503,-0.23841 2.888152,-0.54642 4.136993,-0.68447 2.630477,-0.29077 3.954355,-0.11028 6.443487,0.87851 l 1.538859,0.6113 1.071937,-0.66635 c 1.423573,-0.88494 3.124094,-1.06766 3.785057,-0.4067 0.580335,0.58034 0.569053,1.31825 -0.02871,1.87821 -0.737144,0.69053 -1.604741,0.92734 -3.164152,0.86368 -0.787502,-0.0322 -1.515079,0.0338 -1.616837,0.14651 -0.609258,0.67497 -1.939428,2.49531 -1.939428,2.65412 0,0.10374 0.243228,0.24967 0.540508,0.32428 0.399383,0.10024 0.523731,0.25327 0.47625,0.58612 -0.05357,0.37549 -0.230164,0.46113 -1.061185,0.51462 -0.975633,0.0628 -1.013735,0.0922 -1.784022,1.37583 -1.761756,2.9359 -3.264183,4.39975 -5.047915,4.9183 -2.138837,0.62177 -3.966326,-0.3556 -4.679467,-2.50267 -0.579184,-1.74376 -0.0061,-3.83915 0.854591,-3.12481 0.235177,0.19518 0.291831,0.489 0.202277,1.04904 -0.430532,2.6924 1.916724,4.5085 4.090613,3.16496 0.8247,-0.50969 2.67309,-2.66411 3.408879,-3.97327 l 0.486558,-0.86571 h -1.07852 c -0.805571,0 -1.112327,-0.0881 -1.212101,-0.34811 -0.213131,-0.55541 0.52613,-0.92189 1.859636,-0.92189 h 1.208524 l 1.207594,-1.6772 c 0.664176,-0.92246 1.214816,-1.7559 1.223643,-1.85209 0.0088,-0.0962 -0.644195,-0.45365 -1.451157,-0.79438 -2.966282,-1.25246 -6.634374,-0.93304 -12.050539,1.04938 -2.427787,0.88861 -2.863778,1.1246 -3.704167,2.0049 -2.042109,2.13911 -3.066643,5.16046 -3.050266,8.99522 0.0097,2.27016 0.08235,2.75595 0.683888,4.57273 0.370176,1.11799 0.670035,2.16574 0.666357,2.32833 -0.01336,0.59 -1.002225,-0.84474 -1.642832,-2.38355 -1.578149,-3.79088 -1.432166,-7.34484 0.488702,-11.89755 0.615779,-1.45948 -3.642658,2.73028 -4.824182,4.74638 -2.311133,3.94361 -2.477196,8.35565 -0.465601,12.37033 0.724605,1.44614 2.481443,3.71929 3.341571,4.3236 0.39413,0.27691 0.479933,0.24182 1.035196,-0.42329 0.332997,-0.39888 1.313403,-1.7618 2.178681,-3.02872 l 1.573232,-2.3035 -0.627372,-0.58605 c -0.345057,-0.32233 -0.627373,-0.79051 -0.627373,-1.04041 0,-0.88959 1.345588,-1.72026 3.166283,-1.95464 0.381749,-0.0491 0.877642,-0.57468 1.860766,-1.97199 0.737176,-1.04775 1.548515,-2.14313 1.802979,-2.43417 0.408493,-0.46721 0.471451,-0.48473 0.537762,-0.14961 0.04131,0.20876 -0.514371,1.37555 -1.23484,2.59287 -1.184267,2.00096 -1.44468,2.84841 -0.875288,2.84841 0.105022,0 1.201011,-0.73819 2.43553,-1.64042 4.892581,-3.57567 7.132559,-4.66534 7.288104,-3.54542 0.04518,0.3253 -0.224422,0.57027 -1.164167,1.05779 -1.38961,0.7209 -7.367126,4.64166 -7.565197,4.96215 -0.155577,0.25173 1.042211,4.22477 1.619237,5.37099 0.223607,0.44418 0.739464,1.00401 1.146349,1.24408 0.838289,0.4946 0.889201,1.08355 0.103312,1.19511 -1.237926,0.17571 -2.146198,-0.99257 -3.100137,-3.98762 -0.315174,-0.98954 -0.701455,-2.05263 -0.858404,-2.36242 l -0.285358,-0.56326 -0.978836,0.37156 c -0.904651,0.3434 -1.098552,0.56255 -2.558438,2.89159 -0.868782,1.38602 -1.870723,3.08825 -2.226534,3.78273 l -0.646932,1.26269 0.644876,0.53837 c 0.843928,0.70454 3.961192,2.25034 5.849698,2.90076 2.812121,0.96853 5.123485,1.35856 8.797567,1.48455 4.036065,0.13841 6.158218,-0.0833 9.804007,-1.0243 1.375829,-0.3551 2.557676,-0.58947 2.626326,-0.52083 0.35448,0.35449 -4.729068,2.1294 -7.561999,2.64025 -1.805798,0.32564 -4.570205,0.41745 -6.712219,0.22292 z m 21.4535,-4.11423 c 1.15066,-1.21681 2.40372,-3.4266 2.40372,-4.23901 0,-0.493 -0.92303,-1.26331 -1.26243,-1.05355 -0.10567,0.0653 -0.67399,0.96078 -1.26293,1.98993 -2.32915,4.07013 -2.26449,5.82592 0.12164,3.30263 z m -1.51618,-6.05209 c 0.8391,-0.92878 1.47397,-2.19317 1.26831,-2.52594 -0.27647,-0.44733 -0.93816,-0.14959 -1.86166,0.8377 -0.96055,1.02691 -1.37264,1.89887 -1.10335,2.33459 0.27853,0.45067 0.92973,0.20261 1.6967,-0.64635 z m -9.513228,0.17387 c 0.06688,-0.26648 0.02197,-0.74657 -0.0998,-1.06685 -0.185005,-0.4866 -0.287236,-0.54711 -0.621836,-0.36804 -0.612235,0.32766 -0.681535,0.77902 -0.211379,1.37673 0.527268,0.67031 0.775492,0.68578 0.933016,0.0582 z m 6.213628,-4.58788 c 0.263,-0.3961 0.27044,-0.4782 0.0362,-0.40013 -0.16207,0.054 -0.44357,0.32248 -0.62556,0.59658 -0.26301,0.3961 -0.27044,0.4782 -0.0362,0.40013 0.16206,-0.054 0.44356,-0.32248 0.62556,-0.59658 z m 13.11333,-3.8801 c 1.05092,-1.36308 1.0936,-1.87107 0.0912,-1.08531 -0.78032,0.61166 -3.87289,4.63398 -3.85947,5.01978 0.0108,0.31042 2.49644,-2.28484 3.76828,-3.93447 z m -39.248994,3.10136 c 0.0734,-0.19129 0.107406,-0.37068 0.07556,-0.39866 -0.140464,-0.1234 -1.010399,0.33117 -1.010399,0.52797 0,0.35723 0.790071,0.24794 0.934837,-0.12931 z m 27.855854,-1.24455 c 0.22368,-0.26952 0.21059,-0.3005 -0.0799,-0.18902 -0.19109,0.0733 -0.34744,0.21838 -0.34744,0.32235 0,0.27219 0.12253,0.23396 0.42736,-0.13333 z m -7.222658,-17.27005 c 0.687358,-0.23961 0.787319,-0.66414 0.183949,-0.7812 -0.182658,-0.0354 -0.69708,0.0881 -1.143161,0.27444 -0.638764,0.26689 -0.744347,0.38106 -0.497023,0.53745 0.409228,0.25875 0.639906,0.25389 1.456235,-0.0307 z m -4.3807,19.45506 c -0.366992,-0.36699 -0.31361,-0.74472 0.174185,-1.23251 0.340089,-0.34009 0.514282,-0.38211 0.846666,-0.20422 0.523975,0.28042 0.538063,0.8819 0.0314,1.34043 -0.459814,0.41612 -0.709572,0.43898 -1.052251,0.0963 z m 2.056977,-7.44083 c -0.277629,-0.13842 -0.60013,-0.52279 -0.716672,-0.85417 -0.179671,-0.5109 -0.108646,-0.79184 0.467091,-1.84759 0.373442,-0.68479 0.612847,-1.24507 0.532016,-1.24507 -0.08083,0 -0.687959,0.53534 -1.349165,1.18965 -1.106725,1.09518 -1.66758,1.30994 -1.66758,0.63854 0,-0.14491 0.333375,-0.5866 0.740833,-0.98153 0.620685,-0.60159 0.740833,-0.86578 0.740833,-1.62902 0,-0.98719 0.538137,-1.75764 1.227667,-1.75764 0.482594,0 0.889,0.39998 0.889,0.87494 0,0.24262 0.196594,0.38963 0.580274,0.43392 0.86908,0.10031 0.83262,0.6648 -0.13929,2.15654 -1.328636,2.03927 -1.08962,2.61512 0.582649,1.40374 0.481516,-0.34881 1.353375,-1.29125 1.937467,-2.0943 1.234568,-1.69737 1.916058,-2.12707 2.199998,-1.38715 0.0762,0.19865 -0.20236,0.76564 -0.70201,1.42875 -0.84165,1.117 -1.300029,2.26356 -0.90494,2.26356 0.25981,0 2.06683,-1.95605 2.79585,-3.02643 0.54781,-0.80431 0.95697,-1.08287 1.2891,-0.8776 0.33707,0.20832 0.21165,0.64605 -0.54526,1.90303 -0.89069,1.47913 -1.06455,1.97662 -0.78759,2.25358 0.25029,0.25029 0.87584,-0.0458 1.94406,-0.92007 0.8467,-0.693 1.27469,-0.7671 1.27469,-0.2207 0,0.38436 -0.92862,1.37223 -1.89918,2.02037 -0.78978,0.52741 -1.82682,0.4493 -2.37288,-0.17871 -0.4025,-0.46292 -0.50047,-0.4909 -0.79273,-0.2264 -0.18342,0.16599 -0.58861,0.39879 -0.900426,0.51735 -0.464758,0.1767 -0.668938,0.13532 -1.132842,-0.22959 -0.534333,-0.42031 -0.598314,-0.42599 -1.146962,-0.1019 -1.0836,0.6401 -1.608303,0.76097 -2.144001,0.4939 z"
         id="path33"
         inkscape:connector-curvature="0" />
      <path
         style="fill:#c8d9d7;stroke-width:0.21166666"
         d="m 85.498209,165.07108 c -3.814741,-0.48523 -8.310016,-1.98904 -11.187049,-3.7424 -0.797712,-0.48615 -1.542008,-0.88391 -1.653993,-0.88391 -0.111984,0 -0.656854,0.49292 -1.21082,1.09538 -1.62578,1.76811 -2.301434,0.95168 -1.151985,-1.392 l 0.565319,-1.15267 -1.278545,-1.44494 c -1.811396,-2.04714 -2.865915,-3.77582 -3.547472,-5.81538 -1.661342,-4.97159 -0.438124,-10.1771 3.37058,-14.34379 1.138352,-1.24534 3.59148,-3.18604 5.119925,-4.05043 0.680555,-0.38487 1.791049,-1.20723 2.467762,-1.82745 8.706366,-7.9796 24.740199,-9.10583 35.430459,-2.48867 0.98734,0.61116 2.50925,1.87735 3.78673,3.15048 1.84596,1.83967 2.27042,2.40161 3.12675,4.13947 2.01265,4.08457 2.1352,8.04819 0.36925,11.94291 -1.29019,2.84546 -3.86107,5.76076 -6.53637,7.41205 -1.05588,0.65173 -1.30063,0.91909 -1.52369,1.66449 -0.9884,3.30292 -3.99627,6.60495 -5.64061,6.19225 -1.34494,-0.33756 -1.06523,-2.39926 0.77429,-5.70714 0.69408,-1.24812 1.26197,-2.31909 1.26197,-2.37992 0,-0.0608 -0.43504,0.27231 -0.96675,0.74035 -1.43935,1.26696 -2.80253,1.37201 -3.16068,0.24356 -0.16931,-0.53344 -0.41584,-0.53313 -1.16667,0.001 -0.32832,0.23378 -0.88926,0.48352 -1.24655,0.55498 -0.5451,0.10902 -0.75156,0.0208 -1.28334,-0.54849 l -0.633735,-0.67842 -0.586554,0.41207 c -0.804261,0.56502 -2.559841,1.31648 -3.075553,1.31648 -0.233392,0 -0.751791,-0.34718 -1.151995,-0.77153 l -0.727645,-0.77152 -0.807834,0.45402 c -1.020913,0.57379 -1.861433,0.57755 -2.464465,0.011 l -0.471555,-0.443 -0.936517,0.54884 c -1.10585,0.64807 -1.658539,0.68991 -2.136519,0.16175 -0.503193,-0.55602 -0.432858,-1.41479 0.213079,-2.60158 0.309861,-0.56932 0.493215,-1.10529 0.407454,-1.19105 -0.08576,-0.0858 -0.648845,0.39361 -1.251299,1.06526 -0.602456,0.67166 -1.214436,1.21855 -1.359956,1.21532 -0.481483,-0.0107 -0.27522,-0.62788 0.494595,-1.47997 0.6382,-0.70641 0.736917,-0.94168 0.619478,-1.47637 -0.241029,-1.0974 1.280414,-2.24688 1.768022,-1.33578 0.109034,0.20373 0.203863,0.46567 0.210731,0.58209 0.0069,0.11641 0.199843,0.24119 0.428835,0.27729 0.956593,0.15077 0.967609,0.60236 0.04908,2.01217 -0.936151,1.43686 -1.119545,2.26287 -0.501576,2.25912 0.599764,-0.004 2.41112,-1.57617 3.337801,-2.89771 0.856738,-1.22179 1.583449,-1.68982 1.583449,-1.0198 0,0.18953 -0.381,0.97632 -0.846667,1.7484 -0.920019,1.52542 -1.016304,1.90788 -0.527532,2.09544 0.386162,0.14818 1.222351,-0.35135 2.220866,-1.32673 0.407458,-0.39802 1.09802,-1.01712 1.534583,-1.37577 0.63717,-0.52347 0.79375,-0.79582 0.79375,-1.38063 0,-0.49652 0.169958,-0.89849 0.533675,-1.2622 1.132067,-1.13207 2.116478,-0.061 1.147951,1.24902 -0.459943,0.62211 -0.463101,0.66339 -0.123283,1.61159 0.191812,0.53523 0.34828,1.18745 0.347705,1.44939 -6.35e-4,0.26193 0.07039,0.47282 0.157702,0.46864 0.445882,-0.0214 1.343833,-1.05679 1.636929,-1.88749 0.18261,-0.51759 0.56766,-1.36268 0.85567,-1.87798 0.28801,-0.5153 0.52365,-1.02016 0.52365,-1.12192 0,-0.10175 -0.34036,-0.185 -0.75635,-0.185 -0.60609,0 -0.742347,-0.0736 -0.68583,-0.37042 0.0543,-0.28518 0.34874,-0.39524 1.27951,-0.47828 1.08398,-0.0967 1.31355,-0.20841 2.22041,-1.08024 1.3486,-1.29652 1.94111,-1.6694 2.65267,-1.6694 0.77159,0 0.94488,0.48076 0.50545,1.40226 -0.19114,0.40082 -0.34752,0.76882 -0.34752,0.81775 0,0.0489 0.64195,0.11715 1.42656,0.15157 1.10584,0.0485 1.44104,0.13859 1.49095,0.40065 0.0538,0.28225 -0.26003,0.36109 -1.90065,0.47755 l -1.96505,0.13948 -2.27757,2.27051 c -1.81218,1.80656 -2.27758,2.39155 -2.27758,2.86285 0,1.15533 1.28081,0.93758 2.59546,-0.44124 0.40844,-0.42838 1.30982,-1.37419 2.00305,-2.10179 1.14948,-1.20648 1.3375,-1.32292 2.13608,-1.32292 1.11536,0 1.64177,0.66256 1.42872,1.79823 -0.0765,0.40797 -0.0916,0.74177 -0.0335,0.74177 0.0581,0 0.86534,-1.11919 1.79383,-2.48708 3.44613,-5.07696 5.87225,-7.57406 7.20774,-7.4186 0.79006,0.092 0.81911,1.05583 0.0702,2.32872 -0.75812,1.28854 -3.19425,4.10819 -5.24221,6.0675 -1.52911,1.46292 -1.59918,1.56996 -1.31168,2.00372 0.16706,0.25203 0.44571,0.48647 0.61924,0.52097 0.50524,0.10046 3.19841,-2.18548 4.50102,-3.82043 3.56126,-4.46988 4.1803,-9.24678 1.81715,-14.0223 -1.09553,-2.21385 -2.49061,-3.91422 -4.60518,-5.61291 -7.74758,-6.22385 -20.241919,-7.44127 -30.256309,-2.94812 -1.526199,0.68476 -3.776593,2.07776 -3.616025,2.23833 0.05985,0.0598 1.237061,-0.14524 2.616035,-0.45575 1.518662,-0.34196 3.466979,-0.60929 4.94139,-0.67801 2.391448,-0.11145 2.4752,-0.0995 4.772389,0.67808 l 2.33822,0.79152 0.8129,-0.55165 c 1.616606,-1.09705 3.419458,-1.20497 4.050138,-0.24243 0.255653,0.39018 0.269182,0.59112 0.06933,1.02974 -0.376684,0.82673 -1.538518,1.2897 -3.258813,1.29856 -0.814917,0.004 -1.608684,0.0896 -1.763927,0.18981 -0.481031,0.31045 -2.15651,2.70831 -2.03255,2.90888 0.06451,0.10438 0.305162,0.18978 0.534778,0.18978 0.513307,0 0.786122,0.61063 0.383883,0.85923 -0.161517,0.0998 -0.501898,0.12923 -0.756399,0.0654 -0.830428,-0.20843 -1.219912,0.10454 -2.186619,1.75704 -1.759246,3.00728 -3.881949,4.71181 -5.880548,4.72206 -2.137258,0.011 -3.456652,-1.35151 -3.607822,-3.7256 -0.08782,-1.37912 0.134975,-1.98475 0.73012,-1.98475 0.215441,0 0.291584,0.33341 0.291584,1.2768 0,1.61252 0.416477,2.6179 1.310179,3.16277 1.262274,0.76959 2.55133,0.41038 4.045915,-1.12744 1.156481,-1.18993 2.768947,-3.64368 2.587428,-3.93739 -0.07526,-0.12178 -0.607469,-0.22141 -1.182681,-0.22141 -0.575213,0 -1.045841,-0.0762 -1.045841,-0.16933 0,-0.41874 0.591748,-0.6785 1.576916,-0.69221 0.587905,-0.008 1.226607,-0.0796 1.419335,-0.15875 0.351522,-0.14433 2.718749,-3.29904 2.718749,-3.62317 0,-0.2442 -1.868397,-1.01808 -3.47581,-1.43967 -1.181945,-0.31 -1.618065,-0.32379 -3.334087,-0.10545 -1.085848,0.13816 -2.69655,0.44125 -3.57934,0.67354 -2.290566,0.60273 -6.139387,2.11231 -6.72044,2.63588 -0.773428,0.69692 -2.287452,3.27632 -2.767889,4.71557 -0.971795,2.91121 -0.942706,6.13244 0.08583,9.50449 0.291537,0.9558 0.530069,1.80715 0.530069,1.89188 0,0.41636 -0.64055,-0.4623 -1.126632,-1.54544 -0.868602,-1.9355 -1.201702,-3.55083 -1.201702,-5.82751 0,-2.25484 0.332344,-3.8934 1.177127,-5.8036 0.286929,-0.6488 0.477224,-1.2241 0.422876,-1.27845 -0.17124,-0.17124 -1.721698,1.17066 -3.27762,2.83672 -4.998451,5.3523 -5.018792,12.58525 -0.05087,18.08958 0.620956,0.68801 1.296209,1.25092 1.500562,1.25092 0.222127,0 0.84001,-0.65971 1.5364,-1.64042 2.4583,-3.46194 2.924862,-4.14857 2.924862,-4.30442 0,-0.0885 -0.285487,-0.44642 -0.634417,-0.79535 -0.512376,-0.51237 -0.599792,-0.72801 -0.454425,-1.12098 0.280716,-0.75885 1.169056,-1.29001 2.346727,-1.40317 l 1.077753,-0.10355 1.700378,-2.41277 c 0.935209,-1.32702 1.792368,-2.35591 1.904801,-2.28643 0.112433,0.0695 0.168978,0.1912 0.125656,0.27047 -0.04332,0.0793 -0.671233,1.16545 -1.39536,2.41374 -1.865884,3.21653 -1.45909,3.55056 1.580062,1.29745 2.318965,-1.71919 5.244905,-3.63212 6.115372,-3.99813 0.640135,-0.26915 1.391786,-0.1 1.391786,0.31325 0,0.10164 -0.638211,0.5356 -1.418247,0.96436 -1.627331,0.8945 -6.768987,4.27152 -7.276947,4.77948 -0.312657,0.31266 -0.2901,0.50219 0.277451,2.33131 0.920131,2.96543 1.412089,3.95454 2.213118,4.4496 1.160827,0.71743 0.729522,1.58755 -0.495033,0.99869 -0.86157,-0.41431 -1.435445,-1.40463 -2.285557,-3.9441 -1.011691,-3.02214 -0.922653,-2.91157 -2.049888,-2.54573 -0.809589,0.26275 -1.071377,0.52161 -2.113229,2.08955 -1.864104,2.8054 -3.380552,5.55964 -3.315369,6.02152 0.117621,0.83345 4.976291,3.24248 8.286788,4.10876 5.637767,1.47526 10.143413,1.40357 17.807747,-0.28336 1.402532,-0.3087 -0.874112,0.69963 -3.016991,1.33623 -3.542936,1.05252 -7.12999,1.32827 -10.953009,0.84198 z m 23.176141,-4.24931 c 1.00243,-1.2565 1.78405,-2.69818 1.99687,-3.68316 0.12629,-0.58449 0.0635,-0.71044 -0.54669,-1.09679 -0.37915,-0.24006 -0.75889,-0.3935 -0.84387,-0.34098 -0.32176,0.19886 -2.34835,3.94854 -2.74683,5.0823 -0.77424,2.20283 0.39706,2.22397 2.14052,0.0386 z m -37.047038,-0.89371 c -0.0037,-0.12327 -0.14658,-0.0392 -0.3175,0.18675 -0.170923,0.22598 -0.30774,0.51173 -0.304038,0.635 0.0037,0.12327 0.146579,0.0392 0.3175,-0.18675 0.170923,-0.22598 0.30774,-0.51173 0.304038,-0.635 z m 34.508958,-4.14036 c 0.78063,-0.55586 1.90444,-2.26717 1.90444,-2.90003 0,-0.68739 -0.55573,-0.83911 -1.23361,-0.33681 -0.91176,0.67561 -1.94139,2.158 -1.94139,2.79508 0,0.98066 0.34519,1.10068 1.27056,0.44176 z m -8.893802,-0.79335 c -0.0057,-1.40312 -0.660459,-1.72568 -1.334334,-0.65737 -0.26747,0.42404 0.39685,1.45112 0.938585,1.45112 0.320521,0 0.398352,-0.15611 0.395749,-0.79375 z m 6.443532,-4.73474 c -0.18382,-0.29742 -0.7051,0.0483 -1.14434,0.75906 -0.65176,1.05456 -0.51474,1.13042 0.41028,0.22716 0.46085,-0.45001 0.79117,-0.8938 0.73406,-0.98622 z m 10.85513,-0.9902 c 1.63789,-1.85506 3.02458,-3.63025 3.02458,-3.87198 0,-0.41217 -0.57775,-0.15772 -1.36484,0.60109 -0.91207,0.87931 -3.92683,4.83536 -3.92683,5.1529 0,0.37901 1.01389,-0.46266 2.26709,-1.88201 z m -37.367504,0.87672 c 0.491704,-0.44499 0.493268,-0.70803 0.0042,-0.70803 -0.540935,0 -1.192405,0.52395 -1.012802,0.81456 0.210357,0.34036 0.555009,0.30396 1.008596,-0.10653 z m 28.010754,-1.34433 c 0.21136,-0.23354 0.32196,-0.48696 0.24577,-0.56314 -0.15435,-0.15436 -0.98777,0.52815 -0.98777,0.80891 0,0.30901 0.34265,0.19551 0.742,-0.24577 z m -7.07809,-17.36281 c 0.638459,-0.3417 0.510629,-0.83922 -0.215623,-0.83922 -0.802167,0 -1.703292,0.40991 -1.703292,0.77481 0,0.3437 1.314594,0.38783 1.918915,0.0644 z m -4.594036,19.16328 c -0.29794,-0.77642 0.561007,-1.464 1.124697,-0.90031 0.254254,0.25426 0.27145,0.41574 0.08197,0.76978 -0.276532,0.5167 -1.027318,0.59792 -1.206671,0.13053 z m 1.737741,-7.42346 c -0.491799,-0.49179 -0.4053,-1.48739 0.230765,-2.65604 0.309861,-0.56932 0.50064,-1.09787 0.423956,-1.17455 -0.07668,-0.0767 -0.639769,0.40081 -1.2513,1.0611 -1.613405,1.74205 -2.35013,1.5769 -0.893798,-0.20036 0.570027,-0.69565 0.716356,-1.03498 0.617002,-1.43084 -0.152114,-0.60607 0.169672,-1.30481 0.74194,-1.61108 0.569354,-0.30471 1.068815,-0.0495 1.068815,0.54621 0,0.39222 0.113562,0.50652 0.50325,0.50652 0.276786,0 0.62005,0.14073 0.762807,0.31275 0.21224,0.25573 0.1012,0.56349 -0.609081,1.68814 -0.95165,1.50683 -1.105375,2.23244 -0.472959,2.23244 0.412034,0 2.56765,-1.59846 2.56765,-1.904 0,-0.42495 1.734528,-2.32933 2.121588,-2.32933 0.60678,0 0.51641,0.43954 -0.30836,1.49984 -0.97499,1.25343 -1.284531,2.07098 -0.84759,2.23865 0.41629,0.15975 1.12061,-0.4984 2.47179,-2.30974 0.64972,-0.871 1.21968,-1.42875 1.46001,-1.42875 0.50322,0 0.50321,0.43836 -10e-6,1.0827 -0.59743,0.76497 -1.29909,2.23347 -1.29909,2.71886 0,0.7672 0.96959,0.48326 2.3014,-0.67395 0.72236,-0.62766 1.22655,-0.56709 0.96447,0.11587 -0.19704,0.5135 -2.05574,1.81674 -2.80466,1.96653 -0.51484,0.10296 -0.75625,0.0175 -1.19764,-0.42386 -0.66296,-0.66296 -0.64635,-0.66133 -1.32248,-0.12949 -0.700449,0.55097 -1.411664,0.538 -1.790575,-0.0327 l -0.302781,-0.45601 -0.958716,0.56185 c -1.095371,0.64193 -1.700016,0.70561 -2.176403,0.22922 z"
         id="path31"
         inkscape:connector-curvature="0" />
      <path
         style="fill:#b2cac7;stroke-width:0.21166666"
         d="m 85.392376,164.95737 c -4.775469,-0.77981 -8.06852,-1.97211 -12.198458,-4.4166 l -0.662627,-0.39221 -1.046078,1.13766 c -0.769052,0.83638 -1.143967,1.10009 -1.415719,0.99581 -0.432746,-0.16606 -0.359142,-0.54015 0.435394,-2.21279 l 0.53029,-1.11636 -1.174963,-1.2691 c -1.529271,-1.6518 -2.343106,-2.85175 -3.198624,-4.71621 -0.988422,-2.15409 -1.230649,-3.48762 -1.124092,-6.18843 0.14889,-3.77376 1.286171,-6.36295 4.130389,-9.40344 1.427361,-1.52585 3.709723,-3.29397 5.304049,-4.10898 0.380634,-0.19458 1.333134,-0.93724 2.116667,-1.65037 3.226329,-2.93642 7.455602,-5.0211 12.431271,-6.1276 2.472667,-0.54988 8.803725,-0.77362 11.351035,-0.40116 10.0445,1.46871 17.75121,7.13345 19.57181,14.3861 0.48356,1.9263 0.32994,5.56005 -0.31387,7.42441 -1.08471,3.14114 -3.7299,6.45923 -6.77065,8.493 -1.463,0.97853 -1.62882,1.16327 -1.94065,2.16222 -0.69095,2.2135 -2.0742,4.24039 -3.57188,5.23393 -1.89702,1.25847 -2.85973,0.5909 -2.3884,-1.65617 0.4158,-1.98235 4.17498,-8.23329 7.83112,-13.02195 2.42644,-3.17807 4.25827,-4.5865 5.00025,-3.84452 0.77076,0.77075 -0.6016,2.89089 -4.37041,6.75181 -1.48223,1.51847 -2.69667,2.8278 -2.69875,2.90964 -0.0102,0.40306 0.52403,1.22704 0.7956,1.22704 0.5201,0 2.26365,-1.40938 3.91454,-3.16429 2.65889,-2.82642 3.96442,-5.9084 3.96442,-9.35885 0,-7.55457 -6.70981,-14.00649 -16.95052,-16.29901 -1.91799,-0.42936 -2.77065,-0.49368 -6.544478,-0.49368 -4.654654,0 -6.221008,0.20981 -9.630833,1.29006 -2.170432,0.68761 -5.71261,2.42183 -6.6675,3.26436 l -0.740833,0.65366 0.635,-0.099 c 0.34925,-0.0544 1.778,-0.34933 3.175,-0.65534 1.772822,-0.38834 3.243245,-0.5663 4.868333,-0.58921 2.221268,-0.0313 2.423831,0.004 4.405088,0.76377 l 2.076755,0.79659 1.061834,-0.68138 c 1.354493,-0.86918 2.812929,-1.05904 3.550041,-0.46217 0.401687,0.32527 0.475924,0.52925 0.360295,0.98996 -0.221384,0.88206 -1.685751,1.45675 -3.473613,1.36321 l -1.393228,-0.0729 -1.033602,1.27 c -1.541907,1.89457 -1.575958,1.99103 -0.805453,2.28187 1.006553,0.37993 0.821167,0.7873 -0.358282,0.7873 h -1.007667 l -0.996839,1.6634 c -1.962368,3.27456 -3.728058,4.70239 -5.83528,4.71871 -1.835196,0.0142 -2.953105,-0.91111 -3.440843,-2.8481 -0.257429,-1.02234 -0.120715,-2.47568 0.232885,-2.47568 0.454039,0 0.516545,0.14799 0.4505,1.06659 -0.08739,1.2154 0.459084,2.6155 1.237076,3.16948 0.701044,0.49918 2.088119,0.55611 2.917094,0.11971 1.12856,-0.59411 4.275739,-4.40334 4.275739,-5.1752 0,-0.1452 -0.410229,-0.23891 -1.045841,-0.23891 -1.063197,0 -1.574008,-0.32037 -1.045028,-0.65542 0.160437,-0.10162 0.874357,-0.18622 1.58649,-0.18801 1.289029,-0.003 1.297399,-0.007 1.880784,-0.90282 0.322296,-0.49477 0.915428,-1.30757 1.318071,-1.80621 0.402641,-0.49864 0.682962,-1.03462 0.622935,-1.19105 -0.06003,-0.15643 -0.950066,-0.59122 -1.97786,-0.96621 -1.491204,-0.54406 -2.18942,-0.681 -3.456218,-0.67787 -2.289897,0.006 -5.540349,0.73873 -8.833874,1.99227 l -2.870388,1.0925 -0.95169,1.28099 c -2.613293,3.51756 -3.405397,7.81911 -2.266547,12.30859 0.291041,1.14732 0.529166,2.13322 0.529166,2.1909 0,0.41388 -0.716206,-1.06899 -1.171774,-2.4261 -1.103774,-3.28809 -0.881778,-6.80726 0.630267,-9.9912 0.854689,-1.79973 0.67422,-1.95151 -0.869495,-0.73127 -2.69114,2.12722 -4.927502,5.37247 -5.661554,8.21563 -0.411852,1.59521 -0.431814,4.66988 -0.03987,6.14193 0.380877,1.4305 1.198369,3.19771 2.061785,4.45707 0.998614,1.45655 2.512437,3.02443 2.910027,3.01393 0.1878,-0.005 0.684359,-0.45739 1.103469,-1.00542 1.258994,-1.64624 3.57715,-5.06283 3.57715,-5.27214 0,-0.10751 -0.28575,-0.40674 -0.635,-0.66495 -1.229571,-0.90907 -0.487553,-1.99092 1.666953,-2.4304 l 1.307804,-0.26677 1.369261,-1.93596 c 0.753093,-1.06478 1.483733,-2.00671 1.623642,-2.09318 0.251511,-0.15544 -0.591117,1.43258 -1.737176,3.27388 -0.630989,1.01378 -0.625481,1.42037 0.02203,1.62588 0.291089,0.0924 1.137404,-0.41046 3.039724,-1.80606 2.875392,-2.1095 5.763398,-3.85082 6.23689,-3.76055 0.663107,0.12642 0.363067,0.52035 -0.992281,1.30279 -2.409507,1.39099 -7.456845,4.80423 -7.456845,5.04265 0,0.12403 0.384535,1.44893 0.854522,2.94424 0.798923,2.54184 0.915331,2.76957 1.789137,3.49998 0.96007,0.80252 1.043263,1.13169 0.286015,1.13169 -0.934193,0 -1.758798,-1.24166 -2.697171,-4.06131 -0.491547,-1.47701 -1.006883,-2.72593 -1.145195,-2.77537 -0.257295,-0.092 -1.759394,0.41221 -2.176636,0.73059 -0.339189,0.25881 -3.334419,5.15871 -4.035641,6.60191 l -0.600864,1.23665 0.633065,0.50528 c 0.930588,0.74276 4.625031,2.53556 6.500732,3.1546 4.228588,1.39558 10.353105,1.78449 15.295351,0.97127 1.392864,-0.22919 2.568881,-0.38031 2.613372,-0.33582 0.123164,0.12317 -2.479161,0.89205 -4.27387,1.26275 -1.486818,0.30711 -6.906979,0.42693 -8.38615,0.18539 z m 22.768264,-3.37424 c 1.43237,-1.47381 3.0395,-4.53286 2.66873,-5.07974 -0.21875,-0.32265 -1.15844,-0.92696 -1.4414,-0.92696 -0.26202,0 -1.87795,2.66662 -2.74729,4.5336 -0.27546,0.59156 -0.50177,1.38513 -0.5029,1.76349 -0.003,1.06426 0.82132,0.9459 2.02286,-0.29039 z m -36.753627,-0.84941 c 0.469053,-0.5963 0.575395,-1.13562 0.223918,-1.13562 -0.211368,0 -1.052887,1.22472 -1.05443,1.53458 -0.0017,0.33371 0.4096,0.13615 0.830512,-0.39896 z m 1.457342,-2.60406 c 0.05292,-0.15875 -0.02646,-0.23812 -0.185208,-0.18521 -0.152798,0.0509 -0.319486,0.21762 -0.370417,0.37042 -0.05292,0.15875 0.02646,0.23813 0.185208,0.18521 0.152796,-0.0509 0.319484,-0.21762 0.370417,-0.37042 z m 37.928015,-3.0699 c 0,-0.33711 -0.38403,-0.65151 -0.56939,-0.46615 -0.17413,0.17413 0.0977,0.77116 0.35109,0.77116 0.12007,0 0.2183,-0.13726 0.2183,-0.30501 z m 3.51859,-5.4647 c 2.27474,-2.36265 3.58688,-4.14283 3.27988,-4.44983 -0.4491,-0.44909 -2.16308,1.23058 -4.30162,4.21553 -2.25683,3.15007 -1.87078,3.23859 1.02174,0.2343 z m -36.870048,0.43375 c 0.388284,-0.55436 0.142587,-0.90532 -0.492643,-0.7037 -0.578202,0.18351 -1.117327,0.72946 -0.964513,0.97672 0.226065,0.36578 1.128099,0.19677 1.457156,-0.27302 z m 21.02703,-18.65556 c 0.174527,-0.17453 0.259662,-0.46758 0.189187,-0.65124 -0.166837,-0.43477 -0.994338,-0.42502 -1.933405,0.0228 -0.759479,0.36217 -0.963534,0.78236 -0.483432,0.99547 0.455581,0.20222 1.895668,-0.035 2.22765,-0.36702 z m -3.700293,25.15569 c -0.688211,-0.86253 -0.740933,-0.87404 -1.499261,-0.32749 -0.985744,0.71046 -1.591066,0.74102 -2.331811,0.11772 l -0.66116,-0.55633 -0.797322,0.5418 c -0.950003,0.64554 -1.766435,0.69318 -2.273688,0.13268 -0.458241,-0.50635 -0.308392,-1.36895 0.425742,-2.45076 0.552203,-0.81371 0.662589,-1.37346 0.270853,-1.37346 -0.133671,0 -0.728984,0.52464 -1.322916,1.16588 -0.593933,0.64123 -1.151315,1.1651 -1.238627,1.16416 -0.354245,-0.004 -0.120019,-0.55068 0.517641,-1.20858 0.550541,-0.56801 0.667517,-0.84825 0.628697,-1.50615 -0.08217,-1.39255 1.463048,-2.1851 1.619387,-0.83058 0.05281,0.45753 0.177339,0.58027 0.588728,0.58027 0.835632,0 0.804367,0.49039 -0.122712,1.92476 -0.877112,1.35706 -1.020796,2.14585 -0.411994,2.26174 0.529351,0.10078 2.679004,-1.62567 3.375349,-2.71083 0.806113,-1.25621 1.384662,-1.79765 1.581154,-1.47971 0.07995,0.12936 -0.234201,0.82612 -0.698108,1.54837 -1.04705,1.63012 -1.205379,2.12518 -0.789936,2.46997 0.260458,0.21616 0.489204,0.16384 1.260947,-0.28843 0.518522,-0.30388 1.145976,-0.83789 1.394345,-1.18669 0.248368,-0.3488 0.570146,-0.63418 0.715063,-0.63418 0.487456,0 1.34496,-1.1572 1.470305,-1.98417 0.158951,-1.04868 0.698089,-1.65319 1.401339,-1.57126 0.67369,0.0785 0.659278,0.72838 -0.03704,1.67019 -0.459547,0.62157 -0.462809,0.66057 -0.107118,1.28032 0.201776,0.35158 0.366865,0.95926 0.366865,1.35041 0,0.39116 0.08955,0.76654 0.198994,0.83418 0.383276,0.23688 1.673041,-1.15952 2.011125,-2.17739 0.18293,-0.55073 0.57786,-1.36227 0.87763,-1.80342 0.64241,-0.9454 0.54673,-1.45224 -0.25759,-1.36448 -0.30979,0.0338 -0.60078,-0.045 -0.64664,-0.17502 -0.0868,-0.2461 0.84542,-0.50436 1.82054,-0.50436 0.39211,0 0.85261,-0.29617 1.50812,-0.96997 1.03669,-1.06559 2.40539,-1.87525 2.86918,-1.69728 0.39481,0.15151 0.3775,0.97643 -0.0328,1.56219 -0.49266,0.70336 -0.2135,0.89339 1.31239,0.89339 1.01041,0 1.35746,0.071 1.29334,0.26459 -0.0587,0.17722 -0.67975,0.28457 -1.88094,0.32513 l -1.7933,0.0606 -2.25171,2.26778 c -2.30029,2.31672 -2.72612,3.02712 -2.22491,3.71177 0.52681,0.71963 1.39037,0.23393 3.54656,-1.99473 2.20133,-2.27533 2.88187,-2.6815 3.77661,-2.25404 1.09904,0.52505 0.78698,2.26208 -0.70437,3.92082 -1.48088,1.6471 -2.99077,1.98142 -3.53675,0.78313 -0.29614,-0.64996 -0.38902,-0.64956 -1.3548,0.006 -1.08632,0.73719 -1.83241,0.69221 -2.49172,-0.15023 -0.494644,-0.63203 -0.558417,-0.65585 -0.914925,-0.34163 -0.675255,0.59516 -2.571172,1.44436 -3.224659,1.44436 -0.469739,0 -0.78548,-0.19109 -1.224121,-0.74083 z m 11.970861,-1.18148 c 0.93701,-0.97515 1.6307,-2.33626 1.44169,-2.82881 -0.0742,-0.19332 -0.38053,-0.32888 -0.74322,-0.32888 -1.23045,0 -3.3739,3.14848 -2.64183,3.88055 0.3753,0.3753 1.17341,0.0784 1.94336,-0.72286 z m -9.381128,0.21057 c 0.200584,-0.63198 -0.07862,-1.8872 -0.451621,-2.03033 -0.327075,-0.12551 -1.353386,0.68486 -1.353386,1.06863 0,0.31201 1.089662,1.40344 1.40117,1.40344 0.145,0 0.326727,-0.19878 0.403837,-0.44174 z m 5.559258,-4.06419 c 0.96698,-0.98528 1.117,-1.42074 0.48947,-1.42074 -0.24807,0 -0.65214,0.39095 -1.05834,1.02395 -1.044,1.62694 -0.80325,1.79487 0.56887,0.39679 z m 2.46623,-2.73784 c 0.3942,-0.56279 0.41747,-0.79957 0.0786,-0.79957 -0.29065,0 -1.23072,0.83658 -1.23072,1.09523 0,0.36796 0.83796,0.15293 1.15216,-0.29566 z m -11.716921,1.86865 c -0.350348,-0.42215 -0.04802,-0.97488 0.533239,-0.97488 0.362386,0 0.506521,0.11834 0.506521,0.41588 0,0.56022 -0.718266,0.94637 -1.03976,0.559 z m 1.427419,-7.84782 c -0.188407,-0.4135 -0.162979,-0.72007 0.121509,-1.46499 0.197877,-0.51813 0.497639,-1.05648 0.666138,-1.19632 0.168498,-0.13984 0.30636,-0.38547 0.30636,-0.54584 0,-0.61377 -0.779316,-0.24809 -1.70254,0.79889 -0.541558,0.61415 -1.089144,1.04814 -1.253404,0.99338 -0.205801,-0.0686 -0.05097,-0.36368 0.525814,-1.00211 0.676847,-0.74919 0.809479,-1.04094 0.77085,-1.69564 -0.0813,-1.37781 1.46565,-2.15398 1.620423,-0.81304 0.05281,0.45754 0.177338,0.58027 0.588727,0.58027 0.83399,0 0.804767,0.48977 -0.114046,1.91135 -0.899905,1.39233 -1.062734,2.04549 -0.558197,2.2391 0.635468,0.24385 2.401685,-1.07738 3.300984,-2.46932 0.841144,-1.30193 1.634974,-2.03221 1.910054,-1.75713 0.14518,0.14518 4.2e-4,0.48359 -0.44676,1.04494 -0.836204,1.04954 -1.255238,1.85314 -1.255238,2.40722 0,1.01438 1.239148,0.14084 2.865438,-2.02 0.80628,-1.07129 1.2765,-1.53222 1.41838,-1.39034 0.14188,0.14188 -0.0336,0.62131 -0.52941,1.44613 -0.93172,1.55011 -1.10928,2.12047 -0.78264,2.51405 0.39213,0.47249 0.70944,0.37909 1.89451,-0.55765 1.07184,-0.84724 1.58039,-0.95231 1.1428,-0.23611 -0.37321,0.61083 -2.21421,1.7361 -2.84035,1.7361 -0.40337,0 -0.72913,-0.1863 -1.01717,-0.58172 l -0.42375,-0.58171 -0.64367,0.47588 c -0.819301,0.60574 -1.718205,0.631 -1.869474,0.0525 -0.14394,-0.55043 -0.344367,-0.53393 -1.285863,0.10583 -1.042545,0.70843 -2.088301,0.71113 -2.409475,0.006 z"
         id="path29"
         inkscape:connector-curvature="0" />
      <path
         style="fill:#a4c1bd;stroke-width:0.21166666"
         d="m 85.921542,164.87128 c -4.147868,-0.50085 -8.360918,-1.89942 -11.517346,-3.82332 -1.410608,-0.85979 -1.854659,-1.03915 -2.136641,-0.86305 -0.303041,0.18925 -0.341457,0.14642 -0.258395,-0.28809 0.152508,-0.79779 -0.485607,-0.63682 -1.10832,0.27958 -0.622112,0.91552 -0.672789,1.26836 -0.195923,1.3641 0.289947,0.0582 0.274796,0.12808 -0.101422,0.46766 -0.762951,0.68867 -0.784674,-0.11819 -0.0457,-1.69734 l 0.659947,-1.41028 -1.232734,-1.29163 c -2.326293,-2.43745 -3.578574,-4.75699 -4.185596,-7.75276 -0.886473,-4.37492 0.516401,-8.73297 3.993701,-12.40649 1.041902,-1.1007 2.421858,-2.26104 3.615125,-3.0398 2.601457,-1.69776 3.176793,-2.12186 4.819349,-3.55246 2.831776,-2.46637 7.816122,-4.63393 12.562289,-5.46301 3.188653,-0.55701 8.825742,-0.5053 11.747504,0.10776 9.15605,1.92119 15.59335,6.80551 17.59809,13.35262 0.6261,2.04471 0.67195,5.39091 0.10006,7.3025 -1.10609,3.69715 -4.18857,7.6069 -7.44732,9.44603 -0.82322,0.46459 -1.1864,0.80993 -1.27367,1.2111 -0.70943,3.26117 -4.11627,7.17102 -5.57036,6.39281 -0.35831,-0.19176 -0.44347,-0.43814 -0.44347,-1.28295 0,-1.26149 1.28987,-3.91054 3.9154,-8.04116 4.19793,-6.60443 7.84509,-10.54917 8.83663,-9.55764 0.68685,0.68686 -0.88631,2.9954 -4.67283,6.85711 l -2.64445,2.69697 0.39992,0.74261 c 0.21996,0.40844 0.51171,0.74262 0.64832,0.74262 0.45149,0 2.78717,-1.90108 4.14271,-3.37187 10.75112,-11.66521 -1.77885,-27.26456 -21.209034,-26.40445 -2.910933,0.12885 -6.003347,0.66362 -8.336523,1.44163 -3.063602,1.02156 -7.759651,3.67558 -7.434506,4.20167 0.05935,0.096 0.941295,-0.0547 1.959883,-0.33496 2.571528,-0.70753 6.236151,-1.21222 7.925463,-1.0915 0.830362,0.0593 2.254976,0.39588 3.441727,0.81304 l 2.024909,0.7118 1.265877,-0.69592 c 1.980315,-1.08869 3.704706,-0.90889 3.555955,0.37077 -0.09774,0.84077 -1.198378,1.28739 -3.173611,1.28779 l -1.628328,4.3e-4 -1.176255,1.5033 c -1.298901,1.65996 -1.483805,2.3066 -0.659583,2.3066 0.284171,0 0.575543,0.0952 0.647492,0.21167 0.07965,0.12887 -0.233811,0.21166 -0.80137,0.21166 -1.061984,0 -1.190785,0.11284 -2.354867,2.06289 -1.816031,3.04219 -4.012032,4.6644 -6.009475,4.43926 -1.19083,-0.13423 -1.927653,-0.67319 -2.528871,-1.8498 -0.458897,-0.89809 -0.622488,-2.33163 -0.34777,-3.04753 0.263438,-0.68652 0.461814,-0.29689 0.450681,0.88517 -0.03609,3.8316 3.104032,4.85215 5.906306,1.91956 1.106091,-1.15752 2.870894,-3.75032 2.767175,-4.06545 -0.04313,-0.13105 -0.570992,-0.26705 -1.173029,-0.30224 -1.546771,-0.0904 -1.364431,-0.46453 0.228304,-0.46843 0.727604,-0.002 1.419305,-0.0732 1.537115,-0.15875 0.472567,-0.34309 2.871721,-3.87299 2.757714,-4.05746 -0.253065,-0.40947 -3.651422,-1.55124 -4.930081,-1.6564 -2.457605,-0.20211 -5.572656,0.46674 -9.842201,2.11328 l -2.698706,1.04075 -0.949456,1.33054 c -1.463961,2.05156 -2.175815,3.77169 -2.580094,6.23458 -0.367212,2.23707 -0.365741,2.27257 0.259647,6.2692 0.05971,0.38157 -0.07972,0.17038 -0.349349,-0.52917 -0.313696,-0.81387 -0.479939,-1.8329 -0.552497,-3.38666 -0.122629,-2.62606 0.205107,-4.31079 1.299299,-6.67902 0.398907,-0.86339 0.646724,-1.61834 0.550706,-1.67769 -0.290495,-0.17953 -2.571324,1.62899 -3.922513,3.11026 -4.933061,5.40797 -5.212859,12.19597 -0.734981,17.83091 1.221024,1.53653 1.982622,2.2322 2.443725,2.2322 0.301541,0 4.747089,-6.18578 4.747089,-6.60536 0,-0.0864 -0.291552,-0.30786 -0.647893,-0.49214 -1.365798,-0.70628 -0.307395,-2.18618 1.701586,-2.37922 1.048912,-0.10079 1.113452,-0.14584 1.928654,-1.34628 1.054767,-1.55321 1.28078,-1.60972 0.419854,-0.10498 -0.762197,1.33218 -0.805479,1.7285 -0.222826,2.04032 0.511966,0.274 0.383792,0.34313 3.227713,-1.74086 3.805058,-2.78831 6.514689,-4.2912 6.501528,-3.60606 -0.0017,0.0873 -0.501739,0.43118 -1.11125,0.76416 -1.765723,0.9646 -7.539937,4.84733 -7.655119,5.14749 -0.05762,0.15016 0.284854,1.48894 0.76106,2.97506 0.781435,2.43867 0.956968,2.78793 1.800862,3.5832 0.953361,0.89843 0.984085,1.30796 0.0637,0.8491 -0.714316,-0.35613 -1.369621,-1.40481 -1.914917,-3.06442 -1.319375,-4.01555 -1.283341,-3.97634 -2.983319,-3.24598 -0.805182,0.34594 -1.100533,0.68828 -2.419599,2.80459 -0.826358,1.3258 -1.810792,2.93443 -2.18763,3.57472 -0.376841,0.64029 -0.633578,1.00053 -0.570529,0.80053 0.183219,-0.58119 -0.322387,-0.70115 -0.746686,-0.17716 -0.441805,0.5456 -0.31525,0.94342 0.252864,0.79486 0.259188,-0.0678 0.348073,-0.008 0.274045,0.1852 -0.170587,0.44454 0.773783,1.17866 3.036682,2.36061 3.871548,2.02216 7.594064,2.95895 12.55622,3.15984 1.791475,0.0725 3.85612,0.0267 4.959522,-0.11016 1.039694,-0.12892 1.92747,-0.19729 1.972835,-0.15192 0.04536,0.0454 -0.611063,0.24022 -1.458727,0.43302 -1.896389,0.43132 -5.850411,0.58068 -8.119463,0.30669 z m 21.576898,-2.54771 c 1.38591,-0.96129 3.17367,-3.72539 3.42962,-5.3026 0.11047,-0.68076 0.0568,-0.77904 -0.65477,-1.19888 -0.42631,-0.25153 -0.86072,-0.45732 -0.96534,-0.45732 -0.10463,0 -0.59427,0.69056 -1.08808,1.53458 -1.94551,3.32523 -2.56289,4.97941 -2.07697,5.56492 0.34483,0.41549 0.59042,0.39 1.35554,-0.1407 z m 3.5056,-7.14455 c 0,-0.4767 -0.52795,-0.96373 -0.83739,-0.77248 -0.2949,0.18225 -0.2797,0.60313 0.0331,0.91589 0.38126,0.38127 0.80433,0.30583 0.80433,-0.14341 z m 2.99333,-5.053 c 2.39232,-2.46989 3.78,-4.26418 3.78,-4.88757 0,-1.49612 -2.26582,0.67472 -5.29729,5.07524 -0.57899,0.84047 -1.05271,1.60641 -1.05271,1.7021 0,0.52977 0.78687,-0.0488 2.57,-1.88977 z m -36.446438,-0.0984 c 0.479338,-0.85783 0.07288,-1.16315 -0.920748,-0.69164 -0.713119,0.33839 -0.977756,0.8749 -0.611979,1.24068 0.327633,0.32763 1.221846,0.007 1.532727,-0.54904 z m 1.491444,-0.28456 c 0,-0.34927 -0.334527,-0.40828 -0.529167,-0.0933 -0.172616,0.2793 0.08048,0.67565 0.332126,0.52012 0.108371,-0.067 0.197041,-0.25903 0.197041,-0.42678 z m 19.426235,-18.20284 c 1.035528,-0.72532 0.143833,-1.58666 -1.219655,-1.17815 -0.869354,0.26047 -1.601,0.93691 -1.387323,1.28264 0.21267,0.34411 2.072962,0.26954 2.606978,-0.10449 z m -3.070329,25.47324 c -0.259376,-0.12519 -0.525001,-0.39589 -0.590279,-0.60156 -0.259978,-0.81912 -0.661397,-0.89784 -1.643471,-0.3223 -1.165462,0.683 -1.69693,0.68686 -2.318228,0.0168 l -0.489869,-0.5283 -0.761479,0.51744 c -1.083723,0.73641 -1.735485,0.85936 -2.183037,0.41181 -0.484839,-0.48485 -0.316179,-1.56976 0.406049,-2.61194 0.65565,-0.9461 0.678704,-1.28237 0.08792,-1.28237 -0.270663,0 -0.832206,0.42152 -1.409897,1.05833 -0.528043,0.58209 -1.059331,1.05834 -1.180637,1.05834 -0.121308,0 0.132146,-0.36121 0.56323,-0.80268 0.640051,-0.65547 0.783792,-0.95825 0.783792,-1.651 0,-0.91072 0.287453,-1.35632 0.874941,-1.35632 0.242951,0 0.38957,0.19668 0.433916,0.58208 0.05344,0.46444 0.164668,0.57164 0.550342,0.5304 0.802519,-0.0858 0.758783,0.47474 -0.155298,1.99031 -0.949445,1.5742 -1.005596,2.04626 -0.25608,2.15289 0.878112,0.12493 2.599247,-1.2642 3.843845,-3.10238 0.705538,-1.04202 1.058333,-1.33886 1.058333,-0.89045 0,0.11249 -0.385265,0.80061 -0.856145,1.52915 -1.780967,2.75551 -0.334164,3.40097 2.231979,0.99575 0.34925,-0.32735 0.992187,-0.92298 1.42875,-1.32363 0.594597,-0.54569 0.79375,-0.8955 0.79375,-1.39424 0,-0.65974 0.776727,-1.70488 1.267021,-1.70488 0.485435,0 0.451576,0.68182 -0.07324,1.47487 l -0.548865,0.82939 0.413724,0.91162 c 0.22755,0.50139 0.415817,1.22118 0.418374,1.59953 0.0026,0.37836 0.09962,0.68792 0.215705,0.68792 0.330272,0 1.905612,-1.49829 1.905612,-1.81241 0,-0.15481 0.381,-1.01774 0.84667,-1.91762 0.46567,-0.89988 0.84667,-1.71463 0.84667,-1.81056 0,-0.0959 -0.33338,-0.17441 -0.74084,-0.17441 -0.40746,0 -0.74083,-0.0953 -0.74083,-0.21167 0,-0.11641 0.48007,-0.21166 1.06683,-0.21166 0.96664,0 1.14056,-0.078 1.85208,-0.83052 1.41309,-1.49454 2.96292,-2.29576 3.32077,-1.71674 0.0695,0.11242 -0.0637,0.57688 -0.29594,1.03212 -0.23225,0.45524 -0.36285,0.88714 -0.29023,0.95976 0.0726,0.0726 0.72967,0.13204 1.46011,0.13204 2.07642,0 1.79148,0.37244 -0.34827,0.45521 l -1.91196,0.074 -2.33484,2.36106 c -2.2419,2.26708 -2.33218,2.39347 -2.26795,3.175 0.059,0.71758 0.138,0.82208 0.66753,0.88271 0.83461,0.0955 1.89831,-0.66558 3.42104,-2.44793 1.92008,-2.24744 3.10202,-2.75272 3.83225,-1.63825 0.32618,0.49781 0.32439,0.5992 -0.0269,1.51893 -0.21138,0.55349 -0.86095,1.4858 -1.4818,2.1268 -1.00925,1.042 -1.17641,1.13543 -1.92131,1.07398 -0.59708,-0.0493 -0.87969,-0.19603 -1.05381,-0.5473 -0.37862,-0.76386 -0.46077,-0.77695 -1.30256,-0.20762 -1.35892,0.91908 -1.67604,0.9275 -2.4657,0.0654 l -0.698103,-0.76215 -0.545742,0.42928 c -0.604122,0.47521 -2.682384,1.48712 -3.014707,1.46787 -0.116417,-0.007 -0.423884,-0.11468 -0.68326,-0.23986 z m -0.03376,-1.28626 c -0.172862,-0.17287 -0.235479,-0.14918 -0.235479,0.0891 0,0.42077 0.284628,0.70539 0.38982,0.38982 0.04463,-0.13388 -0.02483,-0.34938 -0.154341,-0.47889 z m 11.209238,-0.0835 c 1.6666,-1.50567 2.20071,-3.48786 0.9776,-3.6281 -0.48006,-0.055 -0.77503,0.1249 -1.52502,0.93025 -1.24385,1.33569 -1.70185,2.30924 -1.39903,2.97384 0.32623,0.71601 0.94564,0.62818 1.94645,-0.27599 z m -9.370384,0.31364 c 0.531337,-0.53133 0.187497,-2.70933 -0.427721,-2.70933 -0.410832,0 -1.223279,0.89543 -1.223279,1.34823 0,0.39066 0.960743,1.6151 1.267268,1.6151 0.07135,0 0.244032,-0.1143 0.383732,-0.254 z m 5.802974,-4.34179 c 1.05,-1.03421 1.30704,-1.75421 0.62625,-1.75421 -0.44016,0 -1.05927,0.61408 -1.70721,1.69334 -0.857,1.42748 -0.33628,1.4568 1.08096,0.0609 z m -5.385815,-0.23285 c 0.04608,-0.13825 -0.06703,-0.25136 -0.251354,-0.25136 -0.184326,0 -0.335138,0.15082 -0.335138,0.33514 0,0.37379 0.455667,0.30869 0.586492,-0.0838 z m 7.784445,-2.50476 c 0.57845,-0.62416 0.67629,-1.13326 0.2178,-1.13326 -0.41821,0 -1.60374,1.03096 -1.60374,1.39465 0,0.49383 0.83133,0.33704 1.38594,-0.26139 z m -11.721876,1.37481 c 0.03895,-0.27383 0.242381,-0.52577 0.457712,-0.56682 0.300084,-0.0572 0.371775,0.0374 0.3175,0.419 -0.03895,0.27384 -0.242382,0.52577 -0.457712,0.56683 -0.300084,0.0572 -0.371776,-0.0374 -0.3175,-0.41901 z m 1.771048,-7.23883 c -0.518062,-0.37882 -0.331643,-1.59913 0.40715,-2.6652 0.654003,-0.94373 0.678749,-1.28238 0.09371,-1.28238 -0.26325,0 -0.864976,0.45243 -1.47796,1.11125 -0.568662,0.61119 -1.035599,1.01001 -1.037637,0.88627 -0.0021,-0.12374 0.282044,-0.49875 0.631294,-0.83335 0.504016,-0.48288 0.635,-0.78794 0.635,-1.47893 0,-0.93815 0.284014,-1.37857 0.889,-1.37857 0.282221,0 0.381,0.16463 0.381,0.635 0,0.56445 0.07055,0.635 0.635,0.635 0.34925,0 0.635,0.10047 0.635,0.22326 0,0.12279 -0.381,0.85497 -0.846667,1.62705 -0.929562,1.54124 -0.991773,1.78743 -0.545296,2.15797 0.587966,0.48797 2.469778,-0.81678 3.653634,-2.53323 0.75744,-1.0982 1.49478,-1.81082 1.68098,-1.62462 0.0715,0.0715 -0.15894,0.49493 -0.51216,0.94091 -1.255674,1.58541 -1.643498,3.01866 -0.816825,3.01866 0.405225,0 1.798045,-1.37982 2.904005,-2.87691 0.89985,-1.21808 1.49275,-1.31115 0.62949,-0.0988 -0.68572,0.963 -1.2959,2.47329 -1.15139,2.84987 0.22,0.57332 1.22283,0.39138 2.27629,-0.413 1.00403,-0.76663 1.36722,-0.73035 0.50669,0.0506 -0.61824,0.56107 -1.41214,1.04259 -2.01669,1.22316 -0.37254,0.11126 -0.62134,-0.005 -1.0948,-0.51191 l -0.61271,-0.6559 -0.78681,0.53394 c -0.987643,0.67024 -1.309287,0.67119 -1.612921,0.005 -0.306309,-0.67228 -0.413171,-0.66462 -1.476745,0.10583 -0.968887,0.70186 -1.386201,0.77585 -1.969633,0.34924 z"
         id="path27"
         inkscape:connector-curvature="0" />
      <path
         style="fill:#a1beba;stroke-width:0.21166666"
         d="m 85.604042,164.75859 c -5.49015,-0.99816 -8.472517,-2.0337 -11.59286,-4.02527 -0.613448,-0.39154 -1.233473,-0.71189 -1.377834,-0.71189 -0.14436,0 -0.37978,-0.18784 -0.523157,-0.41742 -0.15284,-0.24473 -0.392813,-0.36671 -0.580081,-0.29485 -0.20835,0.0799 -0.319401,-0.004 -0.319401,-0.24095 0,-0.19994 -0.712902,-1.12134 -1.584225,-2.04757 -2.649944,-2.8169 -3.919108,-5.94527 -3.919108,-9.66021 0,-3.34659 1.040058,-6.2134 3.239378,-8.929 1.262266,-1.55857 4.016018,-3.8553 5.816628,-4.85128 0.665404,-0.36805 1.933452,-1.30827 2.81788,-2.08937 2.896908,-2.55845 6.468432,-4.37775 10.713254,-5.45724 3.124401,-0.79455 5.292939,-0.99806 9.362345,-0.87861 3.032019,0.089 4.109549,0.20846 5.851709,0.64874 5.78399,1.46176 9.73705,3.58942 12.84829,6.91537 2.85349,3.0504 3.98727,5.6374 4.12689,9.41656 0.0984,2.66404 -0.21652,4.241 -1.26479,6.33308 -1.43505,2.86399 -3.8925,5.59297 -6.23979,6.92925 -1.32271,0.753 -1.37687,0.82158 -1.8296,2.3167 -0.90617,2.99255 -3.96846,6.12568 -5.20537,5.32578 -0.61052,-0.3948 -0.38816,-2.1337 0.49423,-3.86515 3.07605,-6.03588 8.84908,-13.90132 10.80768,-14.72487 0.77648,-0.32649 0.95645,-0.23116 0.94816,0.50229 -0.006,0.4891 -0.0369,0.51725 -0.22218,0.19917 -0.55113,-0.94623 -1.75927,-0.0132 -4.22607,3.26371 -2.61152,3.46916 -3.07741,4.46349 -1.76139,3.75917 0.72854,-0.3899 3.91833,-3.77907 5.01248,-5.3258 0.47207,-0.66733 0.89756,-1.17409 0.94553,-1.12612 0.28769,0.28769 -4.6119,5.98384 -6.1679,7.17066 -0.85433,0.65163 -0.92183,0.93006 -0.44776,1.84681 0.40939,0.79167 0.74375,0.78471 1.94307,-0.0405 2.50633,-1.7244 4.93737,-4.75779 6.08114,-7.58789 0.60644,-1.50054 0.64222,-1.7499 0.63809,-4.44717 -0.004,-2.55887 -0.0616,-3.00663 -0.55205,-4.28446 -2.07582,-5.40847 -7.28572,-9.6617 -14.35985,-11.72302 -5.509339,-1.60534 -12.89782,-1.51096 -18.309171,0.2339 -0.931333,0.3003 -2.741083,1.06618 -4.021667,1.70194 -3.41294,1.69439 -5.163527,3.36851 -2.797913,2.67569 2.645043,-0.77465 5.898047,-1.31791 8.08958,-1.351 2.215551,-0.0334 2.426972,0.003 4.364696,0.74533 l 2.036362,0.78047 1.4186,-0.73943 c 1.488809,-0.77602 2.531265,-0.92759 3.169569,-0.46085 0.507016,0.37074 0.36372,0.95211 -0.369267,1.49816 -0.48876,0.36411 -0.901611,0.44585 -2.25371,0.44623 -1.353882,4.3e-4 -1.742275,0.0775 -2.132735,0.42334 -0.595107,0.52713 -2.317682,2.83338 -2.317682,3.10299 0,0.10967 0.309563,0.3135 0.687917,0.45297 l 0.687916,0.25357 -1.038108,0.10583 -1.038107,0.10584 -1.165356,1.88596 c -1.717952,2.78026 -3.557405,4.39236 -4.952079,4.34001 -0.439737,-0.0165 -0.430981,-0.0344 0.09443,-0.19256 1.467569,-0.4419 2.750959,-1.65752 4.467307,-4.23142 1.082952,-1.62404 1.040719,-1.90783 -0.283919,-1.90783 -1.577022,0 -1.279804,-0.39416 0.351824,-0.46657 l 1.410157,-0.0626 1.34151,-1.86151 c 0.737829,-1.02383 1.341509,-1.99322 1.341509,-2.1542 0,-0.34152 -2.895689,-1.5113 -4.489128,-1.81349 -1.987868,-0.377 -6.005271,0.41115 -10.257758,2.01239 -2.208285,0.83151 -2.611524,1.06253 -3.415015,1.95649 -2.132286,2.37237 -3.359413,6.2473 -3.165092,9.9945 0.128789,2.48353 -0.228151,1.83781 -0.41126,-0.74399 -0.151428,-2.13511 0.315671,-4.44341 1.331485,-6.5799 0.804179,-1.69138 0.862969,-1.97446 0.410053,-1.97446 -0.56745,0 -3.559189,2.62111 -4.711132,4.1275 -2.121118,2.77377 -3.020486,5.28316 -3.020486,8.42767 0,2.31996 0.415769,3.9915 1.523185,6.12375 0.948337,1.82595 3.362054,4.60441 3.999967,4.60441 0.221935,0 0.403515,0.14587 0.403515,0.32415 0,0.17828 0.138629,0.37734 0.308066,0.44236 0.169435,0.065 0.635711,0.42722 1.036167,0.8049 2.007072,1.89291 7.277564,3.90108 11.990767,4.56873 1.736375,0.24597 6.900629,0.31164 8.187857,0.10413 0.710937,-0.11461 0.757133,-0.0978 0.384642,0.14011 -0.420622,0.26863 -7.15852,0.47637 -8.360833,0.25778 z m 22.319438,-2.63888 c 0.97958,-0.86008 2.52239,-3.21069 2.95873,-4.5079 0.3265,-0.97065 0.3252,-1.05872 -0.0214,-1.44168 -0.29178,-0.32242 -0.31157,-0.44344 -0.0944,-0.57764 0.46122,-0.28504 0.19852,-1.17079 -0.37113,-1.25136 -0.44568,-0.063 -0.49275,-0.002 -0.41338,0.53912 0.0808,0.5507 0.0369,0.60285 -0.44955,0.53439 -0.48516,-0.0683 -0.65564,0.13108 -1.70329,1.99182 -0.64029,1.13723 -1.32553,2.45277 -1.52276,2.92341 -0.36848,0.87935 -0.49131,2.05194 -0.24113,2.30212 0.32756,0.32756 1.16461,0.0968 1.85833,-0.51228 z m -9.718473,-30.34497 c 0.563578,-0.23548 0.734035,-0.43116 0.734035,-0.84264 0,-0.94582 -1.52226,-0.99608 -2.791674,-0.0922 -0.71936,0.51223 -0.749251,0.76982 -0.118743,1.02325 0.702509,0.28238 1.35208,0.25598 2.176382,-0.0884 z m -28.149424,30.16632 c -0.144585,-0.23394 0.189315,-0.48655 0.38477,-0.29109 0.20125,0.20125 0.163743,0.48813 -0.06382,0.48813 -0.109546,0 -0.253974,-0.0887 -0.320952,-0.19704 z m 3.078046,-4.54387 c -0.195692,-0.23579 0.121543,-0.83364 1.561581,-2.94288 0.993942,-1.45583 1.806563,-2.77523 1.805828,-2.932 -6.35e-4,-0.15677 -0.286487,-0.4473 -0.635,-0.64561 -0.733954,-0.41765 -0.801537,-0.84739 -0.224072,-1.42486 0.412013,-0.41201 1.672795,-0.85703 2.434268,-0.85922 0.22533,-6.4e-4 0.643069,-0.2155 0.928311,-0.47744 l 0.518617,-0.47625 -0.257264,0.49386 c -0.214751,0.41225 -0.196588,0.56091 0.109912,0.89959 0.201947,0.22314 0.52839,0.40572 0.725426,0.40572 0.197036,0 1.158587,-0.60185 2.136777,-1.33745 3.518594,-2.64597 6.510901,-4.49343 7.009028,-4.32738 0.123593,0.0412 -0.669336,0.61187 -1.762061,1.26816 -1.092723,0.6563 -3.082146,1.93784 -4.420938,2.84789 -2.832459,1.92535 -2.754716,1.70655 -1.753681,4.93545 0.787836,2.5412 1.203596,3.33439 1.978979,3.77552 0.684181,0.38923 0.802625,0.66948 0.282958,0.66948 -0.729386,0 -1.504052,-1.24177 -2.330627,-3.73592 -0.452903,-1.36661 -0.976046,-2.67351 -1.162535,-2.90422 -0.337386,-0.41739 -0.344767,-0.41716 -1.483222,0.0449 -1.101594,0.44711 -1.204155,0.56067 -2.757632,3.05356 -0.887419,1.42405 -1.770227,2.89874 -1.961798,3.27709 -0.397608,0.78528 -0.410729,0.7922 -0.742855,0.39201 z m 4.524654,-7.23536 c 0.517819,-0.79029 0.277701,-1.2327 -0.576349,-1.06189 -0.376157,0.0752 -0.866913,0.31978 -1.090568,0.54343 -0.338483,0.33848 -0.360873,0.46181 -0.133568,0.73569 0.436774,0.52628 1.388561,0.41145 1.800485,-0.21723 z m 1.555932,-0.35574 c 0.04792,-0.24881 -0.06393,-0.36799 -0.34534,-0.36799 -0.4204,0 -0.757261,0.48035 -0.510153,0.72746 0.24261,0.24261 0.783296,0.0154 0.855493,-0.35947 z m 15.66415,6.49259 c -0.354368,-0.60061 -0.551563,-0.73963 -0.942994,-0.6648 -0.470818,0.09 -0.461535,0.0557 0.190621,-0.70433 0.736331,-0.85813 1.214717,-1.04888 1.214717,-0.48435 0,0.19274 0.247125,0.67444 0.549169,1.07044 1.041241,1.36514 2.137192,0.39713 1.595888,-1.40958 -0.187915,-0.6272 -0.36971,-0.85796 -0.675919,-0.85796 -0.349691,0 -0.395808,-0.0961 -0.279229,-0.58208 0.173099,-0.72154 0.207006,-0.76022 0.698126,-0.7964 0.329749,-0.0243 0.357627,0.0349 0.16308,0.34645 -0.179836,0.28797 -0.150137,0.55302 0.12711,1.13441 0.198975,0.41726 0.361775,1.13642 0.361775,1.59814 0,0.66728 0.07815,0.83948 0.381,0.83948 0.20955,0 0.514519,-0.11906 0.677708,-0.26458 0.254169,-0.22665 0.254556,-0.20911 0.0027,0.12234 -0.42755,0.56271 -2.212069,1.41224 -2.966519,1.41224 -0.520571,0 -0.73794,-0.15044 -1.097242,-0.75942 z m 0.885677,-0.0449 c 0,-0.3926 -0.37821,-0.889 -0.677333,-0.889 -0.261189,0 -0.200267,0.73106 0.08467,1.016 0.363043,0.36304 0.592667,0.31383 0.592667,-0.127 z m 8.605308,0.20558 c -0.19267,-0.2129 -0.35031,-0.49865 -0.35031,-0.635 0,-0.13635 -0.14825,-0.24792 -0.32945,-0.24792 -0.23918,0 -0.13769,-0.24284 0.37042,-0.88628 1.28123,-1.62248 2.64548,-2.92387 3.05088,-2.9103 0.36677,0.0123 0.36364,0.0284 -0.037,0.19058 -0.74611,0.302 -2.39565,2.30938 -2.54296,3.0946 -0.25884,1.37972 0.82578,1.80814 2.02434,0.79962 0.72755,-0.6122 1.90365,-2.51241 1.90681,-3.0808 0.001,-0.19713 -0.21233,-0.51322 -0.47427,-0.70244 l -0.47625,-0.34403 0.52917,0.0675 c 1.88418,0.24013 -0.89676,5.0416 -2.92002,5.0416 -0.22057,0 -0.55867,-0.17418 -0.75134,-0.38708 z m -17.06478,-0.13341 c -0.358506,-0.43198 -0.102286,-1.40139 0.641932,-2.42875 0.34148,-0.4714 0.620873,-0.95615 0.620873,-1.07723 0,-0.36139 -0.569243,-0.46861 -1.068711,-0.20131 -0.370421,0.19825 -0.504266,0.19069 -0.648299,-0.0366 -0.277878,-0.43852 -0.223378,-0.62881 0.160469,-0.5603 0.191651,0.0342 0.390089,-0.0569 0.440971,-0.20239 0.05088,-0.14552 -0.06623,-0.26458 -0.260263,-0.26458 -0.514271,0 -0.262221,-0.51688 0.291698,-0.59819 0.402668,-0.0591 0.461093,0.0169 0.406753,0.52917 -0.05684,0.53585 0.0082,0.60509 0.624466,0.66451 0.671536,0.0648 0.932728,0.49822 0.471841,0.78306 -0.375808,0.23227 -1.4732,2.30584 -1.475272,2.7876 -0.003,0.68855 0.71665,0.81592 1.645752,0.2913 l 0.786429,-0.44406 -0.635,0.53225 c -0.707957,0.59341 -1.613713,0.69536 -2.003639,0.22553 z m 13.17491,0.0442 c -0.1126,-0.14552 -0.26414,-0.43127 -0.33677,-0.635 -0.0726,-0.20373 -0.294515,-0.37041 -0.493088,-0.37041 -0.321461,0 -0.314501,-0.0522 0.0635,-0.47625 0.233496,-0.26194 0.628098,-1.02458 0.876898,-1.69476 0.24881,-0.67018 0.69048,-1.56892 0.9815,-1.99721 0.35529,-0.52286 0.4624,-0.85911 0.326,-1.02346 -0.23668,-0.28519 -0.0592,-0.52332 0.3901,-0.52332 0.17307,0 0.81574,-0.47388 1.42813,-1.05306 1.15503,-1.09237 2.51443,-1.88636 2.77816,-1.62263 0.0835,0.0835 0.0268,0.45777 -0.12609,0.83168 -0.57391,1.40379 -0.49782,1.51341 1.14372,1.64788 l 1.48167,0.12137 -1.79917,0.0376 c -1.58382,0.0331 -1.87278,0.10094 -2.41417,0.56654 -0.74117,0.63741 -0.74997,0.63893 -0.61049,0.10558 0.0929,-0.35535 0.007,-0.42334 -0.53821,-0.42334 -0.68227,0 -1.30095,0.62846 -2.02131,2.05324 -0.4378,0.86592 -0.43256,0.9101 0.10781,0.9101 0.39624,0 0.34544,0.11375 -0.42334,0.94777 -0.89474,0.97068 -0.95999,1.14265 -0.74204,1.95563 0.15851,0.59129 0.6961,0.76824 1.48088,0.48742 0.56717,-0.20295 0.58117,-0.19589 0.19917,0.10044 -0.49869,0.38686 -1.47215,0.41693 -1.75286,0.0541 z m 5.12957,-7.60866 c 0.28966,-0.34425 0.52666,-0.71683 0.52666,-0.82797 0,-0.46096 -0.66196,-0.40144 -1.34709,0.12114 -0.82232,0.62722 -1.11554,1.1696 -0.75332,1.39346 0.39887,0.24651 1.01462,-0.0221 1.57375,-0.68663 z m -14.713341,7.23825 c -0.124608,-0.23284 -0.385416,-0.42334 -0.579571,-0.42334 -0.260274,0 -0.157878,-0.20852 0.389784,-0.79375 0.408536,-0.43656 1.012321,-1.19856 1.341744,-1.69333 0.329422,-0.49477 0.686867,-0.89958 0.794322,-0.89958 0.21231,0 0.165227,0.0917 -0.727098,1.41653 -0.848208,1.25931 -1.117799,2.11137 -0.792178,2.50372 0.172011,0.20726 0.182049,0.31308 0.0297,0.31308 -0.126577,0 -0.33209,-0.1905 -0.456698,-0.42333 z m 12.065001,-4.1275 c 0.39492,-0.40746 0.76567,-0.74084 0.82387,-0.74084 0.0582,0 -0.21728,0.33338 -0.6122,0.74084 -0.39493,0.40746 -0.76567,0.74083 -0.82388,0.74083 -0.0582,0 0.21729,-0.33337 0.61221,-0.74083 z m -5.188117,-0.47775 c 0.07422,-0.14634 -0.01342,-0.32301 -0.194752,-0.39259 -0.427675,-0.16412 -0.2147,-0.5055 0.31536,-0.5055 0.497891,0 0.519388,0.20857 0.07764,0.7533 -0.183257,0.22598 -0.27247,0.29113 -0.198252,0.14479 z m -4.013032,-0.88781 c -0.182669,-0.29556 0.05009,-0.64528 0.429474,-0.64528 0.388636,0 0.391708,0.29955 0.0063,0.61936 -0.204166,0.16945 -0.342056,0.17765 -0.435826,0.0259 z m 1.573119,-7.85695 c -0.290561,-0.54291 -0.01166,-1.44089 0.762967,-2.45647 0.357171,-0.46827 0.496143,-0.85301 0.408202,-1.13009 -0.103643,-0.32655 -0.03589,-0.4201 0.304262,-0.4201 0.597912,0 0.555697,0.2053 -0.305319,1.48476 -1.475873,2.19314 -1.176811,3.33359 0.637083,2.42945 l 0.635,-0.31652 -0.499698,0.42366 c -0.663755,0.56274 -1.637407,0.55538 -1.942497,-0.0147 z m 6.53118,-0.0908 c -0.13261,-0.29104 -0.36869,-0.52916 -0.52463,-0.52916 -0.43282,0 -0.36504,-0.13226 0.76148,-1.48591 0.57474,-0.69063 1.1391,-1.42385 1.25412,-1.62938 0.11502,-0.20553 0.25438,-0.32685 0.30968,-0.26962 0.0553,0.0572 -0.27092,0.71665 -0.72495,1.46536 -0.89025,1.46803 -1.01718,2.13198 -0.49105,2.56863 0.26341,0.21861 0.47702,0.22547 1.00542,0.0323 0.6088,-0.22257 0.63289,-0.21648 0.26007,0.0658 -0.66533,0.50382 -1.5698,0.39723 -1.85014,-0.21804 z m -19.063237,-0.0146 c -0.988953,-0.53656 -1.861545,-2.78432 -1.555011,-4.00565 0.210788,-0.83985 0.462024,-0.61697 0.371737,0.32977 -0.162608,1.70513 0.917144,3.46359 2.332448,3.79857 l 0.701745,0.1661 -0.635,0.0132 c -0.34925,0.007 -0.896412,-0.12864 -1.215919,-0.30199 z m 16.199749,-0.0912 c -0.06593,-0.25213 -0.288717,-0.42333 -0.550873,-0.42333 -0.404116,0 -0.387479,-0.0564 0.203113,-0.68792 0.353806,-0.37835 0.845664,-1.02756 1.093022,-1.44267 0.462676,-0.77647 1.310076,-1.66165 1.310076,-1.36849 0,0.0907 -0.381,0.73542 -0.84667,1.43276 -0.894696,1.33982 -1.073417,2.20426 -0.501125,2.42387 0.190045,0.0729 0.547235,0.0176 0.793745,-0.12289 0.37991,-0.21654 0.37206,-0.18937 -0.0515,0.17827 -0.639146,0.55477 -1.3062,0.55956 -1.449808,0.0104 z m 5.230338,-0.0799 c 0,-0.0439 0.16669,-0.21064 0.37042,-0.37041 0.33571,-0.26329 0.3432,-0.2558 0.0799,0.0799 -0.27651,0.35259 -0.45033,0.46471 -0.45033,0.2905 z m -9.313335,-3.08761 c 0,-0.10148 -0.05417,-0.32569 -0.120385,-0.49823 -0.07948,-0.20714 0.0027,-0.30291 0.241802,-0.2819 0.199203,0.0175 0.40419,-0.0872 0.455523,-0.23276 0.05134,-0.14552 -0.06541,-0.26458 -0.25944,-0.26458 -0.194028,0 -0.313091,-0.11906 -0.264583,-0.26458 0.149081,-0.44724 0.899583,-0.3148 0.899583,0.15875 0,0.23283 0.06393,0.52115 0.142065,0.64071 0.07814,0.11955 -0.136176,0.37706 -0.47625,0.57223 -0.340073,0.19518 -0.618315,0.27184 -0.618315,0.17036 z"
         id="path25"
         inkscape:connector-curvature="0" />
      <path
         style="fill:#9abab6;stroke-width:0.21166666"
         d="m 85.921542,164.73915 c -1.745773,-0.2397 -5.043051,-0.99466 -6.455833,-1.47817 -2.454067,-0.83987 -6.829831,-3.14202 -7.260101,-3.81964 -0.0931,-0.14662 -0.355035,-0.26657 -0.582083,-0.26657 -0.227049,0 -0.412816,-0.12419 -0.412816,-0.27598 0,-0.15179 -0.342881,-0.60423 -0.761957,-1.00542 -2.87263,-2.75003 -4.51012,-6.18743 -4.683284,-9.8311 -0.125061,-2.63153 0.249936,-4.38457 1.471545,-6.87917 0.744342,-1.52 1.227728,-2.14402 3.115291,-4.02167 1.606082,-1.59764 2.740075,-2.51485 4.033405,-3.26233 0.989542,-0.57191 2.323042,-1.53013 2.963333,-2.12937 3.045869,-2.85062 7.423707,-4.97007 12.554287,-6.07793 1.81904,-0.39279 2.835641,-0.46664 6.495713,-0.47188 4.025258,-0.006 4.522918,0.0368 6.879168,0.58881 7.57693,1.77497 13.17374,5.59598 15.76477,10.76281 2.98974,5.9619 1.37662,12.60384 -4.22894,17.41242 -0.64029,0.54926 -1.66423,1.28423 -2.27542,1.63327 -0.6315,0.36064 -1.11259,0.78581 -1.11437,0.98483 -0.002,0.2379 -0.0929,0.18051 -0.28301,-0.17896 -0.17625,-0.33319 -0.20781,-0.62339 -0.0852,-0.78359 0.10707,-0.13994 0.1357,-0.47331 0.0636,-0.74083 -0.11036,-0.40959 -0.0786,-0.39448 0.20094,0.0957 0.43363,0.76029 0.68663,0.73546 1.92845,-0.18928 10.69731,-7.96596 8.80637,-20.58725 -3.99122,-26.6398 -7.46241,-3.52931 -17.144616,-3.69714 -24.881763,-0.43132 -2.859433,1.20695 -5.545328,2.92043 -5.545328,3.53766 0,0.31538 0.10239,0.40584 0.370417,0.32723 2.144079,-0.62884 4.473869,-1.20673 4.815416,-1.19445 0.232834,0.008 -0.338666,0.22622 -1.27,0.4841 -0.931333,0.25788 -2.77877,0.88849 -4.105416,1.40136 -2.347227,0.90743 -2.436889,0.96619 -3.334605,2.18565 -1.905127,2.58794 -2.804122,5.32668 -2.849004,8.67936 -0.02184,1.63157 -0.03453,1.67696 -0.218048,0.77991 -0.385515,-1.88447 0.226421,-5.06718 1.436113,-7.46931 1.227612,-2.43771 0.327897,-2.33969 -2.534179,0.27609 -3.328422,3.04199 -5.079356,6.64051 -5.096361,10.47405 -0.01033,2.33037 0.308502,3.72126 1.358584,5.92667 0.920166,1.93255 3.31974,4.89691 4.128167,5.09981 0.289071,0.0726 0.525583,0.26446 0.525583,0.42647 0,0.162 0.145864,0.29455 0.324142,0.29455 0.17828,0 0.378761,0.14233 0.445516,0.31629 0.189277,0.49325 2.968214,2.13322 5.171194,3.05174 3.770747,1.5722 7.255675,2.22469 11.932979,2.23424 1.856067,0.004 3.094317,0.0671 2.751667,0.1406 -0.685298,0.14708 -5.750746,0.17194 -6.761332,0.0332 z m 19.772338,-2.00062 c -0.3937,-0.73563 0.10089,-2.38352 1.42267,-4.74011 1.44978,-2.5848 5.70365,-8.99449 6.73473,-10.14782 0.4163,-0.46567 -0.006,0.23327 -0.93933,1.55319 -2.25144,3.18535 -2.31939,4.17108 -0.15259,2.21361 0.73723,-0.66601 0.59405,-0.47162 -0.4324,0.58706 -0.84402,0.87052 -1.53459,1.69958 -1.53459,1.84237 0,0.14278 -0.19941,0.2596 -0.44314,0.2596 -0.25798,0 -0.48727,0.16872 -0.54874,0.40377 -0.0581,0.22207 -0.27286,0.4475 -0.47731,0.50097 -0.37093,0.097 -2.16328,3.02996 -2.98019,4.87672 -0.78843,1.78237 -0.54175,3.06412 0.53355,2.77235 0.3434,-0.0932 0.36339,-0.0729 0.10584,0.10742 -0.50861,0.35609 -1.02439,0.26438 -1.2885,-0.22913 z m 2.49735,-0.60043 c 0.10839,-0.17462 0.53609,-0.74612 0.95045,-1.27 0.41435,-0.52387 0.99846,-1.42875 1.29801,-2.01083 0.29955,-0.58209 0.54908,-0.97642 0.5545,-0.8763 0.0223,0.41256 -1.32275,2.63519 -2.1315,3.52213 -0.47769,0.52388 -0.77985,0.80963 -0.67146,0.635 z m 2.82952,-4.78014 c 0.0102,-0.24658 0.0603,-0.29673 0.12788,-0.12788 0.0611,0.1528 0.0536,0.33536 -0.0167,0.40569 -0.0703,0.0703 -0.12036,-0.0547 -0.11117,-0.27781 z m -37.833449,-0.0371 c -0.166488,-0.1075 0.329136,-1.0095 1.534584,-2.79285 0.979269,-1.44874 1.780491,-2.80767 1.780491,-3.01984 0,-0.21217 -0.232884,-0.49187 -0.517523,-0.62156 -0.731711,-0.33339 -0.809312,-0.72395 -0.268501,-1.35137 0.349233,-0.40516 0.766299,-0.58384 1.638054,-0.70178 0.643242,-0.087 1.275351,-0.22361 1.404686,-0.30355 0.134461,-0.0831 0.28245,0.0355 0.345603,0.27702 0.06939,0.26535 0.358042,0.47188 0.776501,0.55557 0.420493,0.0841 0.627742,0.23304 0.562138,0.404 -0.05715,0.14894 0.06931,0.7313 0.28103,1.29414 0.211717,0.56284 0.444246,1.35672 0.516731,1.76418 0.07249,0.40746 -0.130637,0.0265 -0.451381,-0.84667 -0.465832,-1.26808 -0.678997,-1.60111 -1.059422,-1.65514 -0.300137,-0.0426 -0.47625,-0.21412 -0.47625,-0.46375 0,-0.56983 -0.407492,-0.73933 -0.809923,-0.3369 -0.271255,0.27126 -0.294475,0.42842 -0.107522,0.72778 0.202188,0.32375 0.149635,0.41533 -0.345606,0.60226 -0.430682,0.16257 -1.0609,0.9924 -2.399997,3.16019 -0.99877,1.61685 -1.892861,3.05837 -1.986866,3.20338 -0.09401,0.14501 -0.281578,0.19221 -0.416827,0.10489 z m 4.277195,-6.92059 c 0.704465,-0.70446 0.694567,-1.38545 -0.02013,-1.38545 -1.342775,0 -2.317764,1.15245 -1.418238,1.67638 0.572594,0.3335 0.875131,0.27231 1.43837,-0.29093 z m 5.26088,6.14988 c -0.395817,-0.39582 -0.716771,-0.84825 -0.71323,-1.00542 0.0044,-0.19398 0.07347,-0.17081 0.215182,0.0722 0.11481,0.19684 0.56224,0.64928 0.99429,1.00542 0.432049,0.35613 0.659068,0.64751 0.504484,0.64751 -0.154583,0 -0.60491,-0.32385 -1.000726,-0.71967 z m 12.721166,0.29633 c -0.07195,-0.11641 0.01767,-0.21166 0.199174,-0.21166 0.446581,0 0.415764,-0.48218 -0.06908,-1.08094 -0.337156,-0.41637 -0.450662,-0.45002 -0.731563,-0.21689 -0.583967,0.48465 -0.820608,0.0523 -0.340451,-0.62203 0.53133,-0.74619 0.836086,-0.79378 0.836086,-0.13058 0,0.59682 1.025567,1.6271 1.619652,1.6271 0.237778,0 0.518316,-0.19223 0.623419,-0.42718 0.189961,-0.42464 0.192645,-0.42469 0.452237,-0.008 0.237575,0.381 0.173061,0.45776 -0.714824,0.85052 -1.072053,0.47422 -1.673902,0.54486 -1.874651,0.22004 z m 9.180228,-0.26458 c -0.17592,-0.14552 -0.46755,-0.50436 -0.64807,-0.79743 -0.31421,-0.51009 -0.29667,-0.56884 0.41065,-1.37583 0.70826,-0.80806 0.72467,-0.81492 0.39595,-0.16558 -0.53766,1.06207 -0.44973,1.89696 0.23916,2.27069 0.34228,0.18569 0.44615,0.31928 0.25212,0.32426 -0.18148,0.005 -0.47389,-0.11059 -0.64981,-0.25611 z m -17.064811,-0.0873 c -0.364024,-0.14688 -0.332162,-1.23182 0.05835,-1.98699 0.177614,-0.34347 0.370561,-0.62449 0.428769,-0.62449 0.05821,0 -0.03949,0.28102 -0.217102,0.62449 -0.476824,0.92208 -0.415944,1.6801 0.153314,1.90891 0.261938,0.10529 0.333375,0.18995 0.15875,0.18814 -0.174625,-0.002 -0.436562,-0.0513 -0.582083,-0.11006 z m 12.997391,-0.2469 c -0.19267,-0.21289 -0.35031,-0.48845 -0.35031,-0.61235 0,-0.1239 -0.15584,-0.28507 -0.34631,-0.35816 -0.313639,-0.12036 -0.315305,-0.16743 -0.01763,-0.4989 0.18077,-0.2013 0.52269,-0.87851 0.75981,-1.5049 0.23713,-0.6264 0.68064,-1.51592 0.98558,-1.97671 0.30493,-0.46079 0.50565,-0.96492 0.44603,-1.12029 -0.0664,-0.17304 0.1263,-0.36431 0.49733,-0.49365 0.33315,-0.11614 0.70673,-0.39988 0.83017,-0.63054 0.32205,-0.60176 2.21812,-1.94241 2.74713,-1.94241 0.45837,0 0.61913,0.50418 0.23623,0.74083 -0.11642,0.072 -0.21167,0.03 -0.21167,-0.0933 0,-0.46161 -0.87959,-0.19968 -1.62575,0.48412 -1.1681,1.07048 -0.53277,1.96476 0.75502,1.06275 0.41344,-0.28958 0.52318,-0.29816 0.67667,-0.0529 0.13259,0.21185 0.0531,0.31268 -0.28762,0.36494 -0.25895,0.0397 -0.63902,0.22254 -0.8446,0.40627 -0.34144,0.30514 -0.39711,0.30215 -0.6433,-0.0345 -0.46393,-0.63446 -1.25873,-0.2295 -2.12182,1.08108 -0.77144,1.17143 -0.99128,1.96746 -0.54334,1.96746 0.12848,0 -0.062,0.33669 -0.42333,0.7482 -0.9681,1.1026 -0.82177,2.44024 0.29557,2.70189 0.4064,0.0952 0.4056,0.10012 -0.0201,0.12369 -0.24389,0.0135 -0.60108,-0.14963 -0.79375,-0.36253 z m -9.939629,-0.67941 c -0.367216,-0.35248 -0.362689,-0.3816 0.118396,-0.76125 0.275118,-0.21712 0.85175,-0.91736 1.281404,-1.55609 0.984925,-1.46423 1.028472,-1.24428 0.05496,0.27757 -0.399428,0.6244 -0.80424,1.42125 -0.899583,1.77078 -0.165289,0.60595 -0.191108,0.61846 -0.555172,0.26899 z m 6.976781,-1.30867 c -0.08581,-0.43322 -0.338468,-0.91545 -0.561453,-1.07164 -0.274885,-0.19253 -0.366445,-0.43303 -0.284363,-0.74691 0.160856,-0.61512 0.495023,-0.59237 0.495023,0.0337 0,0.27315 0.149857,0.79704 0.333015,1.16419 0.183159,0.36715 0.297192,0.83422 0.253409,1.03794 -0.04527,0.21064 -0.146899,0.0307 -0.235631,-0.41728 z m -9.022396,-1.48775 c -0.0037,-0.32015 0.0829,-0.58208 0.192444,-0.58208 0.368875,0 0.424421,0.35812 0.118277,0.76256 -0.28803,0.38052 -0.304341,0.37105 -0.310721,-0.18048 z m 19.914484,-0.0635 c -0.0135,-0.23865 -0.11946,-0.54856 -0.23546,-0.68867 -0.116,-0.14012 -0.0592,-0.1228 0.12617,0.0385 0.1854,0.16128 0.29136,0.47118 0.23547,0.68867 -0.0916,0.35648 -0.10404,0.35269 -0.12618,-0.0385 z m -21.614548,-0.18093 c 0,-0.31659 0.786306,-0.60656 0.945653,-0.34873 0.05467,0.0885 -0.135731,0.26798 -0.423124,0.39892 -0.416357,0.18971 -0.522529,0.17951 -0.522529,-0.0502 z m 0.443546,-1.17183 c -0.210511,-0.1301 -0.216366,-0.20876 -0.02437,-0.32742 0.138988,-0.0859 0.347956,-0.0609 0.464373,0.0555 0.275848,0.27585 -0.07892,0.49511 -0.440006,0.27194 z m 10.474845,-0.40741 c -0.09118,-0.14754 -0.108619,-0.32541 -0.03875,-0.39527 0.189435,-0.18944 0.39598,0.0892 0.293664,0.39612 -0.0717,0.21509 -0.121554,0.21492 -0.25491,-8.5e-4 z m -3.933391,-0.75161 c 0,-0.18432 0.150813,-0.33514 0.335138,-0.33514 0.373789,0 0.308693,0.45567 -0.08378,0.5865 -0.138246,0.0461 -0.251354,-0.067 -0.251354,-0.25136 z m -10.71547,-2.62091 c 0.184717,-0.29888 3.689849,-2.66359 4.727454,-3.18935 1.485142,-0.75252 1.533705,-0.50038 0.06135,0.31852 -0.756709,0.42087 -1.756834,1.02483 -2.2225,1.34213 -1.528524,1.04153 -2.69446,1.73606 -2.566304,1.5287 z m 34.580888,-2.81186 c -0.35431,-0.38806 -0.35201,-0.4057 0.0529,-0.4057 0.28223,0 0.42334,0.14111 0.42334,0.42333 0,0.50183 -0.002,0.50175 -0.47625,-0.0176 z m -22.24264,-1.81681 c -0.283538,-0.28354 -0.12871,-1.46413 0.279902,-2.13431 0.230687,-0.37835 0.467055,-0.68791 0.525264,-0.68791 0.05821,0 -0.08291,0.30956 -0.313597,0.68791 -0.576085,0.94485 -0.55278,1.81277 0.05524,2.05716 0.457285,0.1838 0.45869,0.19196 0.03528,0.20484 -0.242536,0.007 -0.504474,-0.0501 -0.582084,-0.12769 z m 6.46363,-0.49255 c -0.19832,-0.34851 -0.4385,-0.63426 -0.53374,-0.635 -0.18371,-0.001 0.32618,-0.75127 1.22433,-1.80051 l 0.54356,-0.635 -0.53278,1.03695 c -0.68039,1.32423 -0.70038,2.19016 -0.0565,2.44896 0.37968,0.15261 0.39914,0.19415 0.096,0.20484 -0.20988,0.007 -0.54182,-0.2705 -0.74083,-0.62024 z m -3.006408,-0.10717 c -0.110653,-0.29104 -0.32261,-0.53234 -0.471011,-0.53621 -0.1602,-0.004 -0.09548,-0.15467 0.159313,-0.37042 0.236025,-0.19985 0.634894,-0.69837 0.886375,-1.10782 0.251481,-0.40944 0.719861,-0.98094 1.040851,-1.27 0.57438,-0.51723 0.5734,-0.51214 -0.062,0.32111 -0.901069,1.18167 -1.130205,1.67235 -1.130205,2.42026 0,0.4357 0.10432,0.64891 0.3175,0.64891 0.174625,0 0.3175,0.0952 0.3175,0.21167 0,0.45642 -0.862461,0.19768 -1.058333,-0.3175 z M 82.537771,142.2059 c -0.803008,-0.63165 -1.172544,-1.63259 -1.137012,-3.07975 l 0.03005,-1.22388 0.143332,1.37583 c 0.163813,1.57242 0.447353,2.23487 1.245254,2.90937 0.720545,0.6091 0.488586,0.62427 -0.281627,0.0184 z m 4.750524,-0.71729 c 1.129362,-1.05638 3.10073,-3.7756 3.216802,-4.43711 0.05908,-0.33673 -0.109645,-0.46442 -0.879388,-0.66551 l -0.9525,-0.24882 1.292949,-0.017 1.292949,-0.017 0.801911,-1.21708 c 0.441052,-0.6694 1.08715,-1.5812 1.435773,-2.02622 0.565815,-0.72228 0.599487,-0.84351 0.313652,-1.12935 -0.176115,-0.17611 -1.261165,-0.64459 -2.411222,-1.04105 -1.150057,-0.39647 -1.900512,-0.71967 -1.667679,-0.71823 0.232833,0.001 1.232958,0.29079 2.2225,0.64302 2.615087,0.93082 2.648119,0.9348 3.387492,0.40832 0.362202,-0.25791 0.714322,-0.41315 0.782489,-0.34498 0.06817,0.0682 -0.03256,0.184 -0.223852,0.2574 -0.612733,0.23513 -0.4105,0.90426 0.340121,1.12536 0.56584,0.16668 0.479059,0.1822 -0.489009,0.0875 l -1.176924,-0.11517 -0.847651,1.02984 c -1.726927,2.0981 -2.111521,2.88793 -1.508083,3.0971 0.145521,0.0505 -0.02172,0.15609 -0.371652,0.23478 -0.520038,0.11693 -0.848629,0.49426 -1.799167,2.066 -1.037918,1.71624 -3.093424,3.9928 -3.605088,3.9928 -0.102046,0 0.278463,-0.43402 0.845577,-0.96449 z m 9.329145,-2.26343 c -0.0037,-0.32014 0.0829,-0.58208 0.192443,-0.58208 0.368875,0 0.424421,0.35812 0.118277,0.76257 -0.28803,0.38052 -0.304341,0.37104 -0.31072,-0.18049 z m -1.700065,-0.25713 c 0,-0.21092 0.198078,-0.32495 0.564445,-0.32495 0.620531,0 0.61227,0.0377 -0.08819,0.40211 -0.394675,0.20534 -0.47625,0.19213 -0.47625,-0.0772 z m 0.453653,-1.15194 c -0.212933,-0.1323 -0.222972,-0.21811 -0.03883,-0.33191 0.290449,-0.17951 0.508498,-0.0206 0.400982,0.29222 -0.04403,0.12811 -0.193466,0.14449 -0.362147,0.0397 z m 3.63296,-6.58134 c 0.04923,-0.17463 -0.004,-0.508 -0.118273,-0.74084 -0.194139,-0.39551 -0.183793,-0.40046 0.157454,-0.0753 0.293988,0.28017 0.317062,0.4247 0.118273,0.74083 -0.141802,0.22551 -0.208851,0.25756 -0.157454,0.0753 z m -14.2863,-0.99126 c 0.152796,-0.0611 0.335361,-0.0536 0.405695,0.0167 0.07034,0.0703 -0.05468,0.12036 -0.277812,0.11117 -0.246581,-0.0102 -0.296736,-0.0603 -0.127883,-0.12788 z"
         id="path23"
         inkscape:connector-curvature="0" />
    </g>
  </g>
</svg>
